<svg width="24" height="24" viewBox="0 0 24 24" fill="none" xmlns="http://www.w3.org/2000/svg">
<path d="M12 4.79986C11.3656 4.78508 10.7348 4.89913 10.1458 5.13511C9.55674 5.3711 9.02169 5.72411 8.57299 6.17279C8.12429 6.62148 7.77126 7.15652 7.53527 7.74554C7.29928 8.33456 7.18522 8.96534 7.2 9.5997C7.18522 10.2341 7.29928 10.8648 7.53527 11.4539C7.77126 12.0429 8.12429 12.5779 8.57299 13.0266C9.02169 13.4753 9.55674 13.8283 10.1458 14.0643C10.7348 14.3003 11.3656 14.4143 12 14.3995C12.6344 14.4143 13.2652 14.3003 13.8542 14.0643C14.4433 13.8283 14.9783 13.4753 15.427 13.0266C15.8757 12.5779 16.2287 12.0429 16.4647 11.4539C16.7007 10.8648 16.8148 10.2341 16.8 9.5997C16.8148 8.96534 16.7007 8.33456 16.4647 7.74554C16.2287 7.15652 15.8757 6.62148 15.427 6.17279C14.9783 5.72411 14.4433 5.3711 13.8542 5.13511C13.2652 4.89913 12.6344 4.78508 12 4.79986V4.79986ZM12 11.9996C11.6807 12.0151 11.3618 11.9635 11.0636 11.8484C10.7654 11.7333 10.4947 11.557 10.2686 11.331C10.0426 11.105 9.86638 10.8342 9.75123 10.5361C9.63608 10.2379 9.58457 9.91895 9.6 9.5997C9.58457 9.28045 9.63608 8.9615 9.75123 8.66334C9.86638 8.36518 10.0426 8.0944 10.2686 7.86839C10.4947 7.64239 10.7654 7.46615 11.0636 7.351C11.3618 7.23586 11.6807 7.18435 12 7.19978C12.3193 7.18435 12.6382 7.23586 12.9364 7.351C13.2346 7.46615 13.5054 7.64239 13.7314 7.86839C13.9574 8.0944 14.1336 8.36518 14.2488 8.66334C14.3639 8.9615 14.4154 9.28045 14.4 9.5997C14.4154 9.91895 14.3639 10.2379 14.2488 10.5361C14.1336 10.8342 13.9574 11.105 13.7314 11.331C13.5054 11.557 13.2346 11.7333 12.9364 11.8484C12.6382 11.9635 12.3193 12.0151 12 11.9996Z" fill="#0D4983"/>
<path d="M12 0C8.82997 0.0404258 5.80115 1.31765 3.55942 3.55931C1.31769 5.80097 0.0404271 8.82968 0 11.9996C0.0148187 13.8463 0.455665 15.6646 1.28821 17.3129C2.12076 18.9613 3.32255 20.3953 4.8 21.5033V21.5993H4.92C6.95182 23.1562 9.44022 24 12 24C14.5598 24 17.0482 23.1562 19.08 21.5993H19.2V21.5033C20.6775 20.3953 21.8792 18.9613 22.7118 17.3129C23.5443 15.6646 23.9852 13.8463 24 11.9996C23.9596 8.82968 22.6823 5.80097 20.4406 3.55931C18.1988 1.31765 15.17 0.0404258 12 0ZM7.284 20.3153C7.45918 19.5131 7.90338 18.7949 8.5429 18.2798C9.18242 17.7647 9.97883 17.4837 10.8 17.4834H13.2C14.0212 17.4837 14.8176 17.7647 15.4571 18.2798C16.0966 18.7949 16.5408 19.5131 16.716 20.3153C15.2866 21.1563 13.6584 21.5997 12 21.5997C10.3416 21.5997 8.71336 21.1563 7.284 20.3153ZM18.732 18.7674C18.2756 17.6766 17.5069 16.7449 16.5227 16.0895C15.5385 15.4341 14.3825 15.0841 13.2 15.0835H10.8C9.61749 15.0841 8.46153 15.4341 7.47729 16.0895C6.49306 16.7449 5.72445 17.6766 5.268 18.7674C4.3688 17.883 3.65268 16.8301 3.16058 15.6689C2.66847 14.5076 2.41002 13.2608 2.4 11.9996C2.43113 9.46329 3.45254 7.03961 5.24619 5.24602C7.03984 3.45243 9.46359 2.43105 12 2.39992C14.5364 2.43105 16.9602 3.45243 18.7538 5.24602C20.5475 7.03961 21.5689 9.46329 21.6 11.9996C21.59 13.2608 21.3315 14.5076 20.8394 15.6689C20.3473 16.8301 19.6312 17.883 18.732 18.7674Z" fill="#0D4983"/>
</svg>
