<?xml version="1.0" encoding="UTF-8" standalone="no"?>
<svg
   xmlns:dc="http://purl.org/dc/elements/1.1/"
   xmlns:cc="http://creativecommons.org/ns#"
   xmlns:rdf="http://www.w3.org/1999/02/22-rdf-syntax-ns#"
   xmlns:svg="http://www.w3.org/2000/svg"
   xmlns="http://www.w3.org/2000/svg"
   viewBox="0 0 1440 1440"
   height="1440"
   width="1440"
   xml:space="preserve"
   id="svg2"
   version="1.1"><metadata
     id="metadata8"><rdf:RDF><cc:Work
         rdf:about=""><dc:format>image/svg+xml</dc:format><dc:type
           rdf:resource="http://purl.org/dc/dcmitype/StillImage" /></cc:Work></rdf:RDF></metadata><defs
     id="defs6"><clipPath
       id="clipPath18"
       clipPathUnits="userSpaceOnUse"><path
         id="path16"
         d="M 0,1080 H 1080 V 0 H 0 Z" /></clipPath><clipPath
       id="clipPath26"
       clipPathUnits="userSpaceOnUse"><path
         id="path24"
         d="M 26.3143,798.158 H 1054.12 V 281.85 H 26.3143 Z" /></clipPath><radialGradient
       id="radialGradient40"
       spreadMethod="pad"
       gradientTransform="matrix(23.862778,0,0,-23.862778,1030.2596,532.03833)"
       gradientUnits="userSpaceOnUse"
       r="1"
       cy="0"
       cx="0"
       fy="0"
       fx="0"><stop
         id="stop32"
         offset="0"
         style="stop-opacity:1;stop-color:#000099" /><stop
         id="stop34"
         offset="0.187151"
         style="stop-opacity:1;stop-color:#040073" /><stop
         id="stop36"
         offset="0.608939"
         style="stop-opacity:1;stop-color:#0a0044" /><stop
         id="stop38"
         offset="1"
         style="stop-opacity:1;stop-color:#0a0044" /></radialGradient><radialGradient
       id="radialGradient54"
       spreadMethod="pad"
       gradientTransform="matrix(20.828375,0,0,-20.828375,1011.6644,595.30713)"
       gradientUnits="userSpaceOnUse"
       r="1"
       cy="0"
       cx="0"
       fy="0"
       fx="0"><stop
         id="stop46"
         offset="0"
         style="stop-opacity:1;stop-color:#000099" /><stop
         id="stop48"
         offset="0.187151"
         style="stop-opacity:1;stop-color:#040073" /><stop
         id="stop50"
         offset="0.608939"
         style="stop-opacity:1;stop-color:#0a0044" /><stop
         id="stop52"
         offset="1"
         style="stop-opacity:1;stop-color:#0a0044" /></radialGradient><radialGradient
       id="radialGradient68"
       spreadMethod="pad"
       gradientTransform="matrix(30.679873,0,0,-30.679873,984.18384,662.7121)"
       gradientUnits="userSpaceOnUse"
       r="1"
       cy="0"
       cx="0"
       fy="0"
       fx="0"><stop
         id="stop60"
         offset="0"
         style="stop-opacity:1;stop-color:#000099" /><stop
         id="stop62"
         offset="0.187151"
         style="stop-opacity:1;stop-color:#040073" /><stop
         id="stop64"
         offset="0.608939"
         style="stop-opacity:1;stop-color:#0a0044" /><stop
         id="stop66"
         offset="1"
         style="stop-opacity:1;stop-color:#0a0044" /></radialGradient><radialGradient
       id="radialGradient82"
       spreadMethod="pad"
       gradientTransform="matrix(30.296888,0,0,-30.296888,956.16132,543.61029)"
       gradientUnits="userSpaceOnUse"
       r="1"
       cy="0"
       cx="0"
       fy="0"
       fx="0"><stop
         id="stop74"
         offset="0"
         style="stop-opacity:1;stop-color:#000099" /><stop
         id="stop76"
         offset="0.187151"
         style="stop-opacity:1;stop-color:#040073" /><stop
         id="stop78"
         offset="0.608939"
         style="stop-opacity:1;stop-color:#0a0044" /><stop
         id="stop80"
         offset="1"
         style="stop-opacity:1;stop-color:#0a0044" /></radialGradient><radialGradient
       id="radialGradient96"
       spreadMethod="pad"
       gradientTransform="matrix(21.971432,0,0,-21.971432,940.33527,725.67444)"
       gradientUnits="userSpaceOnUse"
       r="1"
       cy="0"
       cx="0"
       fy="0"
       fx="0"><stop
         id="stop88"
         offset="0"
         style="stop-opacity:1;stop-color:#000099" /><stop
         id="stop90"
         offset="0.187151"
         style="stop-opacity:1;stop-color:#040073" /><stop
         id="stop92"
         offset="0.608939"
         style="stop-opacity:1;stop-color:#0a0044" /><stop
         id="stop94"
         offset="1"
         style="stop-opacity:1;stop-color:#0a0044" /></radialGradient><radialGradient
       id="radialGradient110"
       spreadMethod="pad"
       gradientTransform="matrix(20.074194,0,0,-20.074194,936.08124,615.38721)"
       gradientUnits="userSpaceOnUse"
       r="1"
       cy="0"
       cx="0"
       fy="0"
       fx="0"><stop
         id="stop102"
         offset="0"
         style="stop-opacity:1;stop-color:#000099" /><stop
         id="stop104"
         offset="0.187151"
         style="stop-opacity:1;stop-color:#040073" /><stop
         id="stop106"
         offset="0.608939"
         style="stop-opacity:1;stop-color:#0a0044" /><stop
         id="stop108"
         offset="1"
         style="stop-opacity:1;stop-color:#0a0044" /></radialGradient><radialGradient
       id="radialGradient122"
       spreadMethod="pad"
       gradientTransform="matrix(370.11124,0,0,-370.11124,510.11002,540.00439)"
       gradientUnits="userSpaceOnUse"
       r="1"
       cy="0"
       cx="0"
       fy="0"
       fx="0"><stop
         id="stop116"
         offset="0"
         style="stop-opacity:1;stop-color:#0801c3" /><stop
         id="stop118"
         offset="0.27095"
         style="stop-opacity:1;stop-color:#0801c3" /><stop
         id="stop120"
         offset="1"
         style="stop-opacity:1;stop-color:#000262" /></radialGradient><radialGradient
       id="radialGradient136"
       spreadMethod="pad"
       gradientTransform="matrix(37.496967,0,0,-37.496967,892.98682,679.37476)"
       gradientUnits="userSpaceOnUse"
       r="1"
       cy="0"
       cx="0"
       fy="0"
       fx="0"><stop
         id="stop128"
         offset="0"
         style="stop-opacity:1;stop-color:#000099" /><stop
         id="stop130"
         offset="0.187151"
         style="stop-opacity:1;stop-color:#040073" /><stop
         id="stop132"
         offset="0.608939"
         style="stop-opacity:1;stop-color:#0a0044" /><stop
         id="stop134"
         offset="1"
         style="stop-opacity:1;stop-color:#0a0044" /></radialGradient><radialGradient
       id="radialGradient150"
       spreadMethod="pad"
       gradientTransform="matrix(32.553543,0,0,-32.553543,844.10645,758.22211)"
       gradientUnits="userSpaceOnUse"
       r="1"
       cy="0"
       cx="0"
       fy="0"
       fx="0"><stop
         id="stop142"
         offset="0"
         style="stop-opacity:1;stop-color:#000099" /><stop
         id="stop144"
         offset="0.187151"
         style="stop-opacity:1;stop-color:#040073" /><stop
         id="stop146"
         offset="0.608939"
         style="stop-opacity:1;stop-color:#0a0044" /><stop
         id="stop148"
         offset="1"
         style="stop-opacity:1;stop-color:#0a0044" /></radialGradient><radialGradient
       id="radialGradient164"
       spreadMethod="pad"
       gradientTransform="matrix(18.748484,0,0,-18.748484,822.64758,693.38605)"
       gradientUnits="userSpaceOnUse"
       r="1"
       cy="0"
       cx="0"
       fy="0"
       fx="0"><stop
         id="stop156"
         offset="0"
         style="stop-opacity:1;stop-color:#000099" /><stop
         id="stop158"
         offset="0.187151"
         style="stop-opacity:1;stop-color:#040073" /><stop
         id="stop160"
         offset="0.608939"
         style="stop-opacity:1;stop-color:#0a0044" /><stop
         id="stop162"
         offset="1"
         style="stop-opacity:1;stop-color:#0a0044" /></radialGradient><radialGradient
       id="radialGradient178"
       spreadMethod="pad"
       gradientTransform="matrix(25.418276,0,0,-25.418276,773.95575,700.24438)"
       gradientUnits="userSpaceOnUse"
       r="1"
       cy="0"
       cx="0"
       fy="0"
       fx="0"><stop
         id="stop170"
         offset="0"
         style="stop-opacity:1;stop-color:#000099" /><stop
         id="stop172"
         offset="0.187151"
         style="stop-opacity:1;stop-color:#040073" /><stop
         id="stop174"
         offset="0.608939"
         style="stop-opacity:1;stop-color:#0a0044" /><stop
         id="stop176"
         offset="1"
         style="stop-opacity:1;stop-color:#0a0044" /></radialGradient><radialGradient
       id="radialGradient192"
       spreadMethod="pad"
       gradientTransform="matrix(16.273825,0,0,-16.273825,780.10706,774.50769)"
       gradientUnits="userSpaceOnUse"
       r="1"
       cy="0"
       cx="0"
       fy="0"
       fx="0"><stop
         id="stop184"
         offset="0"
         style="stop-opacity:1;stop-color:#000099" /><stop
         id="stop186"
         offset="0.187151"
         style="stop-opacity:1;stop-color:#040073" /><stop
         id="stop188"
         offset="0.608939"
         style="stop-opacity:1;stop-color:#0a0044" /><stop
         id="stop190"
         offset="1"
         style="stop-opacity:1;stop-color:#0a0044" /></radialGradient><radialGradient
       id="radialGradient206"
       spreadMethod="pad"
       gradientTransform="matrix(36.701542,0,0,-36.701542,711.8418,740.40454)"
       gradientUnits="userSpaceOnUse"
       r="1"
       cy="0"
       cx="0"
       fy="0"
       fx="0"><stop
         id="stop198"
         offset="0"
         style="stop-opacity:1;stop-color:#000099" /><stop
         id="stop200"
         offset="0.187151"
         style="stop-opacity:1;stop-color:#040073" /><stop
         id="stop202"
         offset="0.608939"
         style="stop-opacity:1;stop-color:#0a0044" /><stop
         id="stop204"
         offset="1"
         style="stop-opacity:1;stop-color:#0a0044" /></radialGradient><radialGradient
       id="radialGradient220"
       spreadMethod="pad"
       gradientTransform="matrix(14.771355,0,0,-14.771355,689.9234,664.60931)"
       gradientUnits="userSpaceOnUse"
       r="1"
       cy="0"
       cx="0"
       fy="0"
       fx="0"><stop
         id="stop212"
         offset="0"
         style="stop-opacity:1;stop-color:#000099" /><stop
         id="stop214"
         offset="0.187151"
         style="stop-opacity:1;stop-color:#040073" /><stop
         id="stop216"
         offset="0.608939"
         style="stop-opacity:1;stop-color:#0a0044" /><stop
         id="stop218"
         offset="1"
         style="stop-opacity:1;stop-color:#0a0044" /></radialGradient><radialGradient
       id="radialGradient234"
       spreadMethod="pad"
       gradientTransform="matrix(45.569065,0,0,-45.569065,629.57709,609.10626)"
       gradientUnits="userSpaceOnUse"
       r="1"
       cy="0"
       cx="0"
       fy="0"
       fx="0"><stop
         id="stop226"
         offset="0"
         style="stop-opacity:1;stop-color:#000099" /><stop
         id="stop228"
         offset="0.187151"
         style="stop-opacity:1;stop-color:#040073" /><stop
         id="stop230"
         offset="0.608939"
         style="stop-opacity:1;stop-color:#0a0044" /><stop
         id="stop232"
         offset="1"
         style="stop-opacity:1;stop-color:#0a0044" /></radialGradient><radialGradient
       id="radialGradient248"
       spreadMethod="pad"
       gradientTransform="matrix(25.547901,0,0,-25.547901,633.31268,695.30688)"
       gradientUnits="userSpaceOnUse"
       r="1"
       cy="0"
       cx="0"
       fy="0"
       fx="0"><stop
         id="stop240"
         offset="0"
         style="stop-opacity:1;stop-color:#000099" /><stop
         id="stop242"
         offset="0.187151"
         style="stop-opacity:1;stop-color:#040073" /><stop
         id="stop244"
         offset="0.608939"
         style="stop-opacity:1;stop-color:#0a0044" /><stop
         id="stop246"
         offset="1"
         style="stop-opacity:1;stop-color:#0a0044" /></radialGradient><radialGradient
       id="radialGradient262"
       spreadMethod="pad"
       gradientTransform="matrix(19.303045,0,0,-19.303045,502.30243,460.67392)"
       gradientUnits="userSpaceOnUse"
       r="1"
       cy="0"
       cx="0"
       fy="0"
       fx="0"><stop
         id="stop254"
         offset="0"
         style="stop-opacity:1;stop-color:#000099" /><stop
         id="stop256"
         offset="0.187151"
         style="stop-opacity:1;stop-color:#040073" /><stop
         id="stop258"
         offset="0.608939"
         style="stop-opacity:1;stop-color:#0a0044" /><stop
         id="stop260"
         offset="1"
         style="stop-opacity:1;stop-color:#0a0044" /></radialGradient><radialGradient
       id="radialGradient276"
       spreadMethod="pad"
       gradientTransform="matrix(29.88031,0,0,-29.88031,454.85443,502.01248)"
       gradientUnits="userSpaceOnUse"
       r="1"
       cy="0"
       cx="0"
       fy="0"
       fx="0"><stop
         id="stop268"
         offset="0"
         style="stop-opacity:1;stop-color:#000099" /><stop
         id="stop270"
         offset="0.187151"
         style="stop-opacity:1;stop-color:#040073" /><stop
         id="stop272"
         offset="0.608939"
         style="stop-opacity:1;stop-color:#0a0044" /><stop
         id="stop274"
         offset="1"
         style="stop-opacity:1;stop-color:#0a0044" /></radialGradient><radialGradient
       id="radialGradient290"
       spreadMethod="pad"
       gradientTransform="matrix(30.679873,0,0,-30.679873,453.93527,419.8067)"
       gradientUnits="userSpaceOnUse"
       r="1"
       cy="0"
       cx="0"
       fy="0"
       fx="0"><stop
         id="stop282"
         offset="0"
         style="stop-opacity:1;stop-color:#000099" /><stop
         id="stop284"
         offset="0.187151"
         style="stop-opacity:1;stop-color:#040073" /><stop
         id="stop286"
         offset="0.608939"
         style="stop-opacity:1;stop-color:#0a0044" /><stop
         id="stop288"
         offset="1"
         style="stop-opacity:1;stop-color:#0a0044" /></radialGradient><radialGradient
       id="radialGradient304"
       spreadMethod="pad"
       gradientTransform="matrix(21.965538,0,0,-21.965538,410.07492,356.8443)"
       gradientUnits="userSpaceOnUse"
       r="1"
       cy="0"
       cx="0"
       fy="0"
       fx="0"><stop
         id="stop296"
         offset="0"
         style="stop-opacity:1;stop-color:#000099" /><stop
         id="stop298"
         offset="0.187151"
         style="stop-opacity:1;stop-color:#040073" /><stop
         id="stop300"
         offset="0.608939"
         style="stop-opacity:1;stop-color:#0a0044" /><stop
         id="stop302"
         offset="1"
         style="stop-opacity:1;stop-color:#0a0044" /></radialGradient><radialGradient
       id="radialGradient318"
       spreadMethod="pad"
       gradientTransform="matrix(20.074194,0,0,-20.074194,405.83264,467.13159)"
       gradientUnits="userSpaceOnUse"
       r="1"
       cy="0"
       cx="0"
       fy="0"
       fx="0"><stop
         id="stop310"
         offset="0"
         style="stop-opacity:1;stop-color:#000099" /><stop
         id="stop312"
         offset="0.187151"
         style="stop-opacity:1;stop-color:#040073" /><stop
         id="stop314"
         offset="0.608939"
         style="stop-opacity:1;stop-color:#0a0044" /><stop
         id="stop316"
         offset="1"
         style="stop-opacity:1;stop-color:#0a0044" /></radialGradient><radialGradient
       id="radialGradient332"
       spreadMethod="pad"
       gradientTransform="matrix(37.496967,0,0,-37.496967,362.72644,403.1322)"
       gradientUnits="userSpaceOnUse"
       r="1"
       cy="0"
       cx="0"
       fy="0"
       fx="0"><stop
         id="stop324"
         offset="0"
         style="stop-opacity:1;stop-color:#000099" /><stop
         id="stop326"
         offset="0.187151"
         style="stop-opacity:1;stop-color:#040073" /><stop
         id="stop328"
         offset="0.608939"
         style="stop-opacity:1;stop-color:#0a0044" /><stop
         id="stop330"
         offset="1"
         style="stop-opacity:1;stop-color:#0a0044" /></radialGradient><radialGradient
       id="radialGradient346"
       spreadMethod="pad"
       gradientTransform="matrix(32.547649,0,0,-32.547649,313.84607,324.29666)"
       gradientUnits="userSpaceOnUse"
       r="1"
       cy="0"
       cx="0"
       fy="0"
       fx="0"><stop
         id="stop338"
         offset="0"
         style="stop-opacity:1;stop-color:#000099" /><stop
         id="stop340"
         offset="0.187151"
         style="stop-opacity:1;stop-color:#040073" /><stop
         id="stop342"
         offset="0.608939"
         style="stop-opacity:1;stop-color:#0a0044" /><stop
         id="stop344"
         offset="1"
         style="stop-opacity:1;stop-color:#0a0044" /></radialGradient><radialGradient
       id="radialGradient360"
       spreadMethod="pad"
       gradientTransform="matrix(18.748484,0,0,-18.748484,292.38724,389.12094)"
       gradientUnits="userSpaceOnUse"
       r="1"
       cy="0"
       cx="0"
       fy="0"
       fx="0"><stop
         id="stop352"
         offset="0"
         style="stop-opacity:1;stop-color:#000099" /><stop
         id="stop354"
         offset="0.187151"
         style="stop-opacity:1;stop-color:#040073" /><stop
         id="stop356"
         offset="0.608939"
         style="stop-opacity:1;stop-color:#0a0044" /><stop
         id="stop358"
         offset="1"
         style="stop-opacity:1;stop-color:#0a0044" /></radialGradient><radialGradient
       id="radialGradient374"
       spreadMethod="pad"
       gradientTransform="matrix(25.418276,0,0,-25.418276,243.71895,382.26257)"
       gradientUnits="userSpaceOnUse"
       r="1"
       cy="0"
       cx="0"
       fy="0"
       fx="0"><stop
         id="stop366"
         offset="0"
         style="stop-opacity:1;stop-color:#000099" /><stop
         id="stop368"
         offset="0.187151"
         style="stop-opacity:1;stop-color:#040073" /><stop
         id="stop370"
         offset="0.608939"
         style="stop-opacity:1;stop-color:#0a0044" /><stop
         id="stop372"
         offset="1"
         style="stop-opacity:1;stop-color:#0a0044" /></radialGradient><radialGradient
       id="radialGradient388"
       spreadMethod="pad"
       gradientTransform="matrix(16.273825,0,0,-16.273825,249.84668,308.02283)"
       gradientUnits="userSpaceOnUse"
       r="1"
       cy="0"
       cx="0"
       fy="0"
       fx="0"><stop
         id="stop380"
         offset="0"
         style="stop-opacity:1;stop-color:#000099" /><stop
         id="stop382"
         offset="0.187151"
         style="stop-opacity:1;stop-color:#040073" /><stop
         id="stop384"
         offset="0.608939"
         style="stop-opacity:1;stop-color:#0a0044" /><stop
         id="stop386"
         offset="1"
         style="stop-opacity:1;stop-color:#0a0044" /></radialGradient><radialGradient
       id="radialGradient402"
       spreadMethod="pad"
       gradientTransform="matrix(36.701542,0,0,-36.701542,181.59325,342.1142)"
       gradientUnits="userSpaceOnUse"
       r="1"
       cy="0"
       cx="0"
       fy="0"
       fx="0"><stop
         id="stop394"
         offset="0"
         style="stop-opacity:1;stop-color:#000099" /><stop
         id="stop396"
         offset="0.187151"
         style="stop-opacity:1;stop-color:#040073" /><stop
         id="stop398"
         offset="0.608939"
         style="stop-opacity:1;stop-color:#0a0044" /><stop
         id="stop400"
         offset="1"
         style="stop-opacity:1;stop-color:#0a0044" /></radialGradient><radialGradient
       id="radialGradient416"
       spreadMethod="pad"
       gradientTransform="matrix(14.777245,0,0,-14.777245,159.66306,417.90945)"
       gradientUnits="userSpaceOnUse"
       r="1"
       cy="0"
       cx="0"
       fy="0"
       fx="0"><stop
         id="stop408"
         offset="0"
         style="stop-opacity:1;stop-color:#000099" /><stop
         id="stop410"
         offset="0.187151"
         style="stop-opacity:1;stop-color:#040073" /><stop
         id="stop412"
         offset="0.608939"
         style="stop-opacity:1;stop-color:#0a0044" /><stop
         id="stop414"
         offset="1"
         style="stop-opacity:1;stop-color:#0a0044" /></radialGradient><radialGradient
       id="radialGradient430"
       spreadMethod="pad"
       gradientTransform="matrix(45.563175,0,0,-45.563175,99.328529,473.40073)"
       gradientUnits="userSpaceOnUse"
       r="1"
       cy="0"
       cx="0"
       fy="0"
       fx="0"><stop
         id="stop422"
         offset="0"
         style="stop-opacity:1;stop-color:#000099" /><stop
         id="stop424"
         offset="0.187151"
         style="stop-opacity:1;stop-color:#040073" /><stop
         id="stop426"
         offset="0.608939"
         style="stop-opacity:1;stop-color:#0a0044" /><stop
         id="stop428"
         offset="1"
         style="stop-opacity:1;stop-color:#0a0044" /></radialGradient><radialGradient
       id="radialGradient444"
       spreadMethod="pad"
       gradientTransform="matrix(25.547901,0,0,-25.547901,103.0523,387.22369)"
       gradientUnits="userSpaceOnUse"
       r="1"
       cy="0"
       cx="0"
       fy="0"
       fx="0"><stop
         id="stop436"
         offset="0"
         style="stop-opacity:1;stop-color:#000099" /><stop
         id="stop438"
         offset="0.187151"
         style="stop-opacity:1;stop-color:#040073" /><stop
         id="stop440"
         offset="0.608939"
         style="stop-opacity:1;stop-color:#0a0044" /><stop
         id="stop442"
         offset="1"
         style="stop-opacity:1;stop-color:#0a0044" /></radialGradient><linearGradient
       id="linearGradient786"
       spreadMethod="pad"
       gradientTransform="matrix(95.726173,253.17366,253.17366,-95.726173,114.08061,448.84061)"
       gradientUnits="userSpaceOnUse"
       y2="0"
       x2="1"
       y1="0"
       x1="0"><stop
         id="stop778"
         offset="0"
         style="stop-opacity:1;stop-color:#0a0044" /><stop
         id="stop780"
         offset="0.233097"
         style="stop-opacity:1;stop-color:#0a0044" /><stop
         id="stop782"
         offset="0.705038"
         style="stop-opacity:1;stop-color:#000000" /><stop
         id="stop784"
         offset="1"
         style="stop-opacity:1;stop-color:#000000" /></linearGradient><linearGradient
       id="linearGradient810"
       spreadMethod="pad"
       gradientTransform="matrix(-12.403716,-237.74316,-237.74316,12.403716,873.80902,553.75568)"
       gradientUnits="userSpaceOnUse"
       y2="0"
       x2="1"
       y1="0"
       x1="0"><stop
         id="stop802"
         offset="0"
         style="stop-opacity:1;stop-color:#0a0044" /><stop
         id="stop804"
         offset="0.226782"
         style="stop-opacity:1;stop-color:#0a0044" /><stop
         id="stop806"
         offset="0.705038"
         style="stop-opacity:1;stop-color:#000000" /><stop
         id="stop808"
         offset="1"
         style="stop-opacity:1;stop-color:#000000" /></linearGradient></defs><g
     transform="matrix(1.3333333,0,0,-1.3333333,0,1440)"
     id="g10"><g
       id="g12"><g
         clip-path="url(#clipPath18)"
         id="g14"><g
           id="g20"><g
             id="g22" /><g
             id="g764"><g
               id="g762"
               clip-path="url(#clipPath26)"><g
                 id="g454"><g
                   id="g452"><g
                     id="g450"><g
                       id="g448"><path
                         id="path446"
                         style="fill:url(#radialGradient40);stroke:none"
                         d="m 1030.248,508.176 c 13.198,0 23.874,10.7 23.874,23.874 0,13.175 -10.676,23.851 -23.874,23.851 -13.175,0 -23.852,-10.676 -23.852,-23.851 0,-13.174 10.677,-23.874 23.852,-23.874" /></g></g></g></g><g
                 id="g464"><g
                   id="g462"><g
                     id="g460"><g
                       id="g458"><path
                         id="path456"
                         style="fill:url(#radialGradient54);stroke:none"
                         d="m 1011.676,574.473 c 11.502,0 20.811,9.333 20.811,20.834 0,11.502 -9.309,20.835 -20.811,20.835 -11.525,0 -20.834,-9.333 -20.834,-20.835 0,-11.501 9.309,-20.834 20.834,-20.834" /></g></g></g></g><g
                 id="g474"><g
                   id="g472"><g
                     id="g470"><g
                       id="g468"><path
                         id="path466"
                         style="fill:url(#radialGradient68);stroke:none"
                         d="m 984.195,632.026 c 16.947,0 30.662,13.741 30.662,30.686 0,16.946 -13.715,30.686 -30.662,30.686 -16.945,0 -30.685,-13.74 -30.685,-30.686 0,-16.945 13.74,-30.686 30.685,-30.686" /></g></g></g></g><g
                 id="g484"><g
                   id="g482"><g
                     id="g480"><g
                       id="g478"><path
                         id="path476"
                         style="fill:url(#radialGradient82);stroke:none"
                         d="m 956.149,513.313 c 16.734,0 30.309,13.552 30.309,30.286 0,16.733 -13.575,30.308 -30.309,30.308 -16.733,0 -30.285,-13.575 -30.285,-30.308 0,-16.734 13.552,-30.286 30.285,-30.286" /></g></g></g></g><g
                 id="g494"><g
                   id="g492"><g
                     id="g490"><g
                       id="g488"><path
                         id="path486"
                         style="fill:url(#radialGradient96);stroke:none"
                         d="m 940.335,703.697 c 12.138,0 21.966,9.852 21.966,21.966 0,12.137 -9.828,21.989 -21.966,21.989 -12.138,0 -21.965,-9.852 -21.965,-21.989 0,-12.114 9.827,-21.966 21.965,-21.966" /></g></g></g></g><g
                 id="g504"><g
                   id="g502"><g
                     id="g500"><g
                       id="g498"><path
                         id="path496"
                         style="fill:url(#radialGradient110);stroke:none"
                         d="m 936.093,595.307 c 11.077,0 20.056,8.98 20.056,20.08 0,11.077 -8.979,20.08 -20.056,20.08 -11.101,0 -20.08,-9.003 -20.08,-20.08 0,-11.1 8.979,-20.08 20.08,-20.08" /></g></g></g></g><g
                 id="g514"><g
                   id="g512"><g
                     id="g510"><g
                       id="g508"><path
                         id="path506"
                         style="fill:url(#radialGradient122);stroke:none"
                         d="m 795.485,281.851 c 65.048,0 124.488,23.992 169.951,63.633 -46.595,1.321 -134.905,10.959 -219.514,69.527 -27.245,18.854 -48.928,39.193 -65.944,58.048 -0.047,0.047 -0.094,0.094 -0.142,0.141 -16.969,17.841 -36.295,39.43 -56.445,62.503 -24.252,27.763 -49.705,57.672 -73.769,85.741 -6.081,7.118 -12.091,14.094 -17.935,20.905 -17.583,20.41 -33.962,39.171 -47.985,54.561 -0.023,0.023 -0.048,0.047 -0.048,0.07 -17.392,19.09 -35.493,37.827 -56.115,53.901 -40.56,28.659 -89.725,45.934 -142.893,47.183 -2.075,0.071 -4.149,0.094 -6.247,0.094 -95.404,0 -178.764,-51.614 -223.614,-128.47 27.904,11.455 157.553,61.277 268.912,-3.158 13.199,-7.613 27.622,-17.723 42.164,-31.228 0.047,-0.047 0.071,-0.071 0.118,-0.094 2.027,-1.838 4.125,-3.794 6.199,-5.916 1.131,-1.131 2.309,-2.38 3.535,-3.7 0.07,-0.071 0.141,-0.141 0.212,-0.212 15.484,-16.686 39.853,-48.008 69.69,-85.151 2.122,-2.64 4.267,-5.303 6.458,-8.014 1.156,0.141 2.333,0.212 3.535,0.212 16.734,0 30.309,-13.575 30.309,-30.309 0,-3.299 -0.519,-6.457 -1.508,-9.427 3.394,-4.077 6.859,-8.202 10.346,-12.326 2.829,1.461 6.057,2.286 9.474,2.286 11.502,0 20.835,-9.333 20.835,-20.834 0,-4.478 -1.414,-8.65 -3.865,-12.044 0,0 0.024,-0.023 0,-0.023 4.926,-5.538 9.852,-11.03 14.848,-16.521 26.113,-28.683 53.429,-56.304 80.721,-79.731 l 0.023,-0.024 c 26.915,-23.12 62.149,-49.281 111.454,-62.762 0.235,-0.07 0.495,-0.142 0.754,-0.212 1.155,-0.307 2.334,-0.613 3.512,-0.919 0.306,-0.071 0.636,-0.165 0.943,-0.236 1.319,-0.33 2.64,-0.636 3.936,-0.943 1.956,-0.448 3.96,-0.895 5.939,-1.296 2.074,-0.424 4.148,-0.825 6.245,-1.202 12.563,-2.239 25.407,-3.583 38.511,-3.96 1.367,-0.023 2.733,-0.07 4.101,-0.07 0.825,-0.023 1.65,-0.023 2.474,-0.023 z" /></g></g></g></g><g
                 id="g524"><g
                   id="g522"><g
                     id="g520"><g
                       id="g518"><path
                         id="path516"
                         style="fill:url(#radialGradient136);stroke:none"
                         d="m 892.986,641.878 c 20.717,0 37.497,16.78 37.497,37.497 0,20.716 -16.78,37.497 -37.497,37.497 -20.715,0 -37.496,-16.781 -37.496,-37.497 0,-20.717 16.781,-37.497 37.496,-37.497" /></g></g></g></g><g
                 id="g534"><g
                   id="g532"><g
                     id="g530"><g
                       id="g528"><path
                         id="path526"
                         style="fill:url(#radialGradient150);stroke:none"
                         d="m 844.106,725.663 c 17.983,0 32.548,14.588 32.548,32.571 0,17.959 -14.565,32.548 -32.548,32.548 -17.982,0 -32.547,-14.589 -32.547,-32.548 0,-17.983 14.565,-32.571 32.547,-32.571" /></g></g></g></g><g
                 id="g544"><g
                   id="g542"><g
                     id="g540"><g
                       id="g538"><path
                         id="path536"
                         style="fill:url(#radialGradient164);stroke:none"
                         d="m 822.659,674.638 c 10.347,0 18.737,8.39 18.737,18.76 0,10.346 -8.39,18.737 -18.737,18.737 -10.37,0 -18.76,-8.391 -18.76,-18.737 0,-10.37 8.39,-18.76 18.76,-18.76" /></g></g></g></g><g
                 id="g554"><g
                   id="g552"><g
                     id="g550"><g
                       id="g548"><path
                         id="path546"
                         style="fill:url(#radialGradient178);stroke:none"
                         d="m 799.374,700.256 c 0,14.023 -11.359,25.407 -25.406,25.407 -14.047,0 -25.431,-11.384 -25.431,-25.407 0,-14.047 11.384,-25.43 25.431,-25.43 14.047,0 25.406,11.383 25.406,25.43" /></g></g></g></g><g
                 id="g564"><g
                   id="g562"><g
                     id="g560"><g
                       id="g558"><path
                         id="path556"
                         style="fill:url(#radialGradient192);stroke:none"
                         d="m 780.096,758.234 c 9.003,0 16.285,7.283 16.285,16.262 0,9.003 -7.282,16.286 -16.285,16.286 -8.98,0 -16.263,-7.283 -16.263,-16.286 0,-8.979 7.283,-16.262 16.263,-16.262" /></g></g></g></g><g
                 id="g574"><g
                   id="g572"><g
                     id="g570"><g
                       id="g568"><path
                         id="path566"
                         style="fill:url(#radialGradient206);stroke:none"
                         d="m 711.842,703.697 c 20.268,0 36.695,16.427 36.695,36.696 0,20.269 -16.427,36.719 -36.695,36.719 -20.269,0 -36.696,-16.45 -36.696,-36.719 0,-20.269 16.427,-36.696 36.696,-36.696" /></g></g></g></g><g
                 id="g578"
                 transform="translate(679.9775,473.0586)"><path
                   id="path576"
                   style="fill:#000000;fill-opacity:1;fill-rule:nonzero;stroke:none"
                   d="m 0,0 c 17.017,-18.854 38.699,-39.193 65.944,-58.048 84.61,-58.567 172.919,-68.206 219.514,-69.526 h 0.023 c 19.138,16.71 35.824,36.201 49.399,57.836 4.407,7.023 8.485,14.283 12.185,21.73 2.122,6.363 3.252,13.175 3.252,20.245 0,0.636 0,1.249 -0.046,1.885 -0.967,34.952 -29.625,62.951 -64.79,62.951 -23.473,0 -44.025,-12.468 -55.409,-31.134 -4.077,-6.151 -32.995,-48.55 -76.125,-61.772 -19.136,-5.845 -38.439,-5.798 -38.439,-5.798 -11.242,0 -22.154,1.439 -32.525,4.172 -0.895,0.188 -1.767,0.448 -2.639,0.684 -0.047,0 -0.117,0.023 -0.189,0.046 -0.165,0.048 -0.495,0.142 -0.919,0.284 -0.283,0.07 -0.589,0.141 -0.942,0.258 -0.354,0.095 -0.755,0.237 -1.202,0.378 -0.26,0.071 -0.495,0.141 -0.779,0.236 -0.353,0.118 -0.707,0.235 -1.084,0.353 -5.75,1.815 -15.554,5.303 -25.005,10.252 C 39.43,-39.312 21.636,-22.743 0,0" /></g><g
                 id="g588"><g
                   id="g586"><g
                     id="g584"><g
                       id="g582"><path
                         id="path580"
                         style="fill:url(#radialGradient220);stroke:none"
                         d="m 689.924,649.844 c 8.154,0 14.776,6.599 14.776,14.754 0,8.178 -6.622,14.777 -14.776,14.777 -8.155,0 -14.778,-6.599 -14.778,-14.777 0,-8.155 6.623,-14.754 14.778,-14.754" /></g></g></g></g><g
                 id="g598"><g
                   id="g596"><g
                     id="g594"><g
                       id="g592"><path
                         id="path590"
                         style="fill:url(#radialGradient234);stroke:none"
                         d="m 629.589,563.537 c 25.147,0 45.557,20.41 45.557,45.581 0,25.147 -20.41,45.557 -45.557,45.557 -25.171,0 -45.581,-20.41 -45.581,-45.557 0,-25.171 20.41,-45.581 45.581,-45.581" /></g></g></g></g><g
                 id="g608"><g
                   id="g606"><g
                     id="g604"><g
                       id="g602"><path
                         id="path600"
                         style="fill:url(#radialGradient248);stroke:none"
                         d="m 633.312,669.759 c 14.118,0 25.548,11.43 25.548,25.548 0,14.094 -11.43,25.548 -25.548,25.548 -14.117,0 -25.547,-11.454 -25.547,-25.548 0,-14.118 11.43,-25.548 25.547,-25.548" /></g></g></g></g><g
                 id="g612"
                 transform="translate(521.1992,449.7734)"><path
                   id="path610"
                   style="fill:#0801c3;fill-opacity:1;fill-rule:nonzero;stroke:none"
                   d="m 0,0 c 2.451,3.394 3.865,7.565 3.865,12.044 0,11.501 -9.333,20.834 -20.835,20.834 -3.417,0 -6.645,-0.825 -9.474,-2.286 C -17.842,20.434 -9.003,10.182 0,0" /></g><g
                 id="g622"><g
                   id="g620"><g
                     id="g618"><g
                       id="g616"><path
                         id="path614"
                         style="fill:url(#radialGradient262);stroke:none"
                         d="m 521.199,449.75 c 0.024,0 0,0.023 0,0.023 -9.003,10.182 -17.842,20.434 -26.444,30.592 -6.74,-3.441 -11.359,-10.465 -11.359,-18.548 0,-11.502 9.333,-20.835 20.833,-20.835 7,0 13.199,3.465 16.97,8.768" /></g></g></g></g><g
                 id="g626"
                 transform="translate(484.4092,492.6914)"><path
                   id="path624"
                   style="fill:#0801c3;fill-opacity:1;fill-rule:nonzero;stroke:none"
                   d="m 0,0 c 0.989,2.97 1.508,6.128 1.508,9.427 0,16.733 -13.575,30.308 -30.309,30.308 -1.202,0 -2.38,-0.07 -3.535,-0.212 C -22.107,26.82 -11.289,13.528 0,0" /></g><g
                 id="g636"><g
                   id="g634"><g
                     id="g632"><g
                       id="g630"><path
                         id="path628"
                         style="fill:url(#radialGradient276);stroke:none"
                         d="M 484.409,492.691 C 473.12,506.22 462.302,519.512 452.073,532.215 436.99,530.471 425.3,517.65 425.3,502.118 c 0,-16.733 13.575,-30.308 30.308,-30.308 13.435,0 24.841,8.767 28.801,20.881" /></g></g></g></g><g
                 id="g646"><g
                   id="g644"><g
                     id="g642"><g
                       id="g640"><path
                         id="path638"
                         style="fill:url(#radialGradient290);stroke:none"
                         d="m 453.936,389.133 c 16.945,0 30.685,13.74 30.685,30.685 0,16.922 -13.74,30.662 -30.685,30.662 -16.946,0 -30.686,-13.74 -30.686,-30.662 0,-16.945 13.74,-30.685 30.686,-30.685" /></g></g></g></g><g
                 id="g656"><g
                   id="g654"><g
                     id="g652"><g
                       id="g650"><path
                         id="path648"
                         style="fill:url(#radialGradient304);stroke:none"
                         d="m 410.075,334.879 c 12.138,0 21.965,9.828 21.965,21.966 0,12.136 -9.827,21.965 -21.965,21.965 -12.138,0 -21.966,-9.829 -21.966,-21.965 0,-12.138 9.828,-21.966 21.966,-21.966" /></g></g></g></g><g
                 id="g666"><g
                   id="g664"><g
                     id="g662"><g
                       id="g660"><path
                         id="path658"
                         style="fill:url(#radialGradient318);stroke:none"
                         d="m 405.833,447.063 c 11.077,0 20.08,8.98 20.08,20.081 0,11.077 -9.003,20.056 -20.08,20.056 -11.101,0 -20.08,-8.979 -20.08,-20.056 0,-11.101 8.979,-20.081 20.08,-20.081" /></g></g></g></g><g
                 id="g676"><g
                   id="g674"><g
                     id="g672"><g
                       id="g670"><path
                         id="path668"
                         style="fill:url(#radialGradient332);stroke:none"
                         d="m 362.727,365.635 c 20.716,0 37.497,16.804 37.497,37.497 0,20.717 -16.781,37.497 -37.497,37.497 -20.717,0 -37.498,-16.78 -37.498,-37.497 0,-20.693 16.781,-37.497 37.498,-37.497" /></g></g></g></g><g
                 id="g686"><g
                   id="g684"><g
                     id="g682"><g
                       id="g680"><path
                         id="path678"
                         style="fill:url(#radialGradient346);stroke:none"
                         d="m 313.846,291.749 c 17.982,0 32.548,14.565 32.548,32.548 0,17.982 -14.566,32.548 -32.548,32.548 -17.983,0 -32.547,-14.566 -32.547,-32.548 0,-17.983 14.564,-32.548 32.547,-32.548" /></g></g></g></g><g
                 id="g690"
                 transform="translate(323.6973,666.5303)"><path
                   id="path688"
                   style="fill:#000000;fill-opacity:1;fill-rule:nonzero;stroke:none"
                   d="m 0,0 c -111.359,64.435 -241.008,14.612 -268.912,3.158 -10.818,-18.501 -19.398,-38.463 -25.359,-59.51 l 0.494,-0.094 c -2.333,-6.67 -3.606,-13.858 -3.606,-21.329 0,-29.036 27.08,-64.954 64.836,-64.836 27.811,0.071 53.5,19.656 62.315,48.385 0,0 1.649,6.316 3.888,12.303 18.313,49.045 65.614,83.973 121.046,83.973 8.744,0 17.276,-0.872 25.525,-2.522 1.437,-0.141 2.875,-0.282 4.313,-0.424 8.272,-1.956 20.127,-5.585 33.065,-12.727 3.159,-1.72 13.199,-7.447 24.559,-17.605 C 27.622,-17.724 13.198,-7.613 0,0" /></g><g
                 id="g700"><g
                   id="g698"><g
                     id="g696"><g
                       id="g694"><path
                         id="path692"
                         style="fill:url(#radialGradient360);stroke:none"
                         d="m 292.399,370.372 c 10.346,0 18.737,8.391 18.737,18.761 0,10.346 -8.391,18.736 -18.737,18.736 -10.37,0 -18.76,-8.39 -18.76,-18.736 0,-10.37 8.39,-18.761 18.76,-18.761" /></g></g></g></g><g
                 id="g710"><g
                   id="g708"><g
                     id="g706"><g
                       id="g704"><path
                         id="path702"
                         style="fill:url(#radialGradient374);stroke:none"
                         d="m 243.707,356.845 c 14.047,0 25.431,11.383 25.431,25.429 0,14.024 -11.384,25.407 -25.431,25.407 -14.047,0 -25.406,-11.383 -25.406,-25.407 0,-14.046 11.359,-25.429 25.406,-25.429" /></g></g></g></g><g
                 id="g720"><g
                   id="g718"><g
                     id="g716"><g
                       id="g714"><path
                         id="path712"
                         style="fill:url(#radialGradient388);stroke:none"
                         d="m 249.835,291.749 c 9.003,0 16.285,7.282 16.285,16.262 0,9.003 -7.282,16.286 -16.285,16.286 -8.98,0 -16.262,-7.283 -16.262,-16.286 0,-8.98 7.282,-16.262 16.262,-16.262" /></g></g></g></g><g
                 id="g730"><g
                   id="g728"><g
                     id="g726"><g
                       id="g724"><path
                         id="path722"
                         style="fill:url(#radialGradient402);stroke:none"
                         d="m 181.581,305.419 c 20.269,0 36.72,16.427 36.72,36.695 0,20.269 -16.451,36.696 -36.72,36.696 -20.269,0 -36.695,-16.427 -36.695,-36.696 0,-20.268 16.426,-36.695 36.695,-36.695" /></g></g></g></g><g
                 id="g740"><g
                   id="g738"><g
                     id="g736"><g
                       id="g734"><path
                         id="path732"
                         style="fill:url(#radialGradient416);stroke:none"
                         d="m 159.663,403.132 c 8.154,0 14.777,6.623 14.777,14.777 0,8.155 -6.623,14.778 -14.777,14.778 -8.154,0 -14.777,-6.623 -14.777,-14.778 0,-8.154 6.623,-14.777 14.777,-14.777" /></g></g></g></g><g
                 id="g750"><g
                   id="g748"><g
                     id="g746"><g
                       id="g744"><path
                         id="path742"
                         style="fill:url(#radialGradient430);stroke:none"
                         d="m 99.328,427.832 c 25.171,0 45.558,20.409 45.558,45.58 0,25.171 -20.387,45.558 -45.558,45.558 -25.17,0 -45.557,-20.387 -45.557,-45.558 0,-25.171 20.387,-45.58 45.557,-45.58" /></g></g></g></g><g
                 id="g760"><g
                   id="g758"><g
                     id="g756"><g
                       id="g754"><path
                         id="path752"
                         style="fill:url(#radialGradient444);stroke:none"
                         d="m 103.053,361.676 c 14.117,0 25.548,11.43 25.548,25.548 0,14.093 -11.431,25.547 -25.548,25.547 -14.094,0 -25.548,-11.454 -25.548,-25.547 0,-14.118 11.454,-25.548 25.548,-25.548" /></g></g></g></g></g></g></g></g></g><g
       id="g766"><g
         id="g768"><g
           id="g774"><g
             id="g776"><path
               id="path788"
               style="fill:url(#linearGradient786);stroke:none"
               d="m 90.897,676.894 c -19.219,-9.209 -39.58,-19.307 -52.65,-42.352 v 0 C 35.61,629.893 13.201,588.851 36.061,554.01 v 0 c 11.031,-16.813 31.185,-30.017 54.713,-30.288 v 0 c 21.556,-0.249 40.452,10.424 51.328,23.783 v 0 c 9.735,11.959 5.733,17.095 17.336,40.928 v 0 c 4.585,9.421 13.351,27.081 29.305,42.868 v 0 c 21.71,21.486 46.136,29.018 53.975,31.337 v 0 c 45.691,13.514 84.879,-2.633 96.365,-7.875 v 0 c -26.515,18.076 -51.114,27.962 -69.454,33.628 v 0 c -6.955,2.149 -36.704,10.916 -76.268,10.915 v 0 c -30.34,-0.001 -66.456,-5.159 -102.464,-22.412" /></g></g></g></g><g
       id="g790"><g
         id="g792"><g
           id="g798"><g
             id="g800"><path
               id="path812"
               style="fill:url(#linearGradient810);stroke:none"
               d="m 924.725,496.603 c -3.669,-2.701 -6.369,-5.46 -6.369,-5.46 v 0 c -6.115,-6.614 -7.561,-13.668 -21.426,-29.226 v 0 c -6.972,-7.822 -20.201,-22.44 -39.841,-33.304 v 0 c -26.728,-14.785 -52.281,-15.404 -60.456,-15.508 v 0 c -47.644,-0.604 -80.977,25.576 -90.608,33.737 v 0 c 20.611,-24.594 41.604,-40.786 57.717,-51.218 v 0 c 10.796,-6.991 84.501,-53.19 175.142,-37.451 v 0 c 20.633,3.583 42.882,8.011 62.169,26.469 v 0 c 3.727,3.567 39.753,39.146 26.244,80.192 v 0 c -6.044,18.365 -21.443,36.119 -43.732,42.73 v 0 c 0,0 -7.173,2.128 -17.669,2.127 v 0 c -11.439,0 -26.824,-2.527 -41.171,-13.088" /></g></g></g></g></g></svg>