<svg width="22" height="24" viewBox="0 0 22 24" fill="none" xmlns="http://www.w3.org/2000/svg">
<path fill-rule="evenodd" clip-rule="evenodd" d="M4.72072 19.7138H3.18866V18.1817L12.6272 8.74311L13.3933 9.50914L14.1593 10.2752L4.72072 19.7138ZM14.1867 4.09221L18.8376 8.68839L20.397 7.12897C20.8165 6.70948 21.0171 6.20353 20.9989 5.61114C20.9806 5.01801 20.7618 4.5117 20.3423 4.09221L18.8102 2.56015C18.3907 2.14065 17.8756 1.93091 17.265 1.93091C16.6536 1.93091 16.1382 2.14065 15.7187 2.56015L14.1867 4.09221ZM7.48422 20.0691L17.2508 10.3025L12.5999 5.65163L1 17.2515V21.9024H2.03981V22.0691H19.9565V20.0691H7.48422Z" fill="#0D4983"/>
</svg>
