<svg width="73" height="73" viewBox="0 0 73 73" fill="none" xmlns="http://www.w3.org/2000/svg">
<g filter="url(#filter0_d_762_20975)">
<circle cx="36.5" cy="32.5" r="32.5" fill="url(#paint0_linear_762_20975)" fill-opacity="0.3" shape-rendering="crispEdges"/>
</g>
<path d="M40.9318 18.09V33.54C40.9318 35.26 40.4018 36.64 39.3418 37.68C38.2818 38.7 36.8818 39.21 35.1418 39.21C33.3818 39.21 31.9718 38.69 30.9118 37.65C29.8518 36.59 29.3218 35.15 29.3218 33.33H32.0518C32.0718 34.35 32.3318 35.18 32.8318 35.82C33.3518 36.46 34.1218 36.78 35.1418 36.78C36.1618 36.78 36.9218 36.48 37.4218 35.88C37.9218 35.26 38.1718 34.48 38.1718 33.54V18.09H40.9318Z" fill="black"/>
<path d="M22.2764 46.424V49.952C22.2764 50.448 22.3964 50.816 22.6364 51.056C22.8818 51.296 23.2204 51.416 23.6524 51.416C24.0791 51.416 24.4124 51.296 24.6524 51.056C24.8978 50.816 25.0204 50.448 25.0204 49.952V46.424H25.7484V49.944C25.7484 50.408 25.6551 50.8 25.4684 51.12C25.2818 51.4347 25.0284 51.6693 24.7084 51.824C24.3938 51.9787 24.0391 52.056 23.6444 52.056C23.2498 52.056 22.8924 51.9787 22.5724 51.824C22.2578 51.6693 22.0071 51.4347 21.8204 51.12C21.6391 50.8 21.5484 50.408 21.5484 49.944V46.424H22.2764ZM28.0909 48.424C28.2349 48.1733 28.4482 47.9653 28.7309 47.8C29.0189 47.6293 29.3522 47.544 29.7309 47.544C30.1202 47.544 30.4722 47.6373 30.7869 47.824C31.1069 48.0107 31.3575 48.2747 31.5389 48.616C31.7202 48.952 31.8109 49.344 31.8109 49.792C31.8109 50.2347 31.7202 50.6293 31.5389 50.976C31.3575 51.3227 31.1069 51.592 30.7869 51.784C30.4722 51.976 30.1202 52.072 29.7309 52.072C29.3575 52.072 29.0269 51.9893 28.7389 51.824C28.4562 51.6533 28.2402 51.4427 28.0909 51.192V54.08H27.3629V47.616H28.0909V48.424ZM31.0669 49.792C31.0669 49.4613 31.0002 49.1733 30.8669 48.928C30.7335 48.6827 30.5522 48.496 30.3229 48.368C30.0989 48.24 29.8509 48.176 29.5789 48.176C29.3122 48.176 29.0642 48.2427 28.8349 48.376C28.6109 48.504 28.4295 48.6933 28.2909 48.944C28.1575 49.1893 28.0909 49.4747 28.0909 49.8C28.0909 50.1307 28.1575 50.4213 28.2909 50.672C28.4295 50.9173 28.6109 51.1067 28.8349 51.24C29.0642 51.368 29.3122 51.432 29.5789 51.432C29.8509 51.432 30.0989 51.368 30.3229 51.24C30.5522 51.1067 30.7335 50.9173 30.8669 50.672C31.0002 50.4213 31.0669 50.128 31.0669 49.792ZM33.8971 46.08V52H33.1691V46.08H33.8971ZM37.4499 52.072C37.0392 52.072 36.6659 51.9787 36.3299 51.792C35.9992 51.6053 35.7379 51.3413 35.5459 51C35.3592 50.6533 35.2659 50.2533 35.2659 49.8C35.2659 49.352 35.3619 48.9573 35.5539 48.616C35.7512 48.2693 36.0179 48.0053 36.3539 47.824C36.6899 47.6373 37.0659 47.544 37.4819 47.544C37.8979 47.544 38.2739 47.6373 38.6099 47.824C38.9459 48.0053 39.2099 48.2667 39.4019 48.608C39.5992 48.9493 39.6979 49.3467 39.6979 49.8C39.6979 50.2533 39.5965 50.6533 39.3939 51C39.1965 51.3413 38.9272 51.6053 38.5859 51.792C38.2445 51.9787 37.8659 52.072 37.4499 52.072ZM37.4499 51.432C37.7112 51.432 37.9565 51.3707 38.1859 51.248C38.4152 51.1253 38.5992 50.9413 38.7379 50.696C38.8819 50.4507 38.9539 50.152 38.9539 49.8C38.9539 49.448 38.8845 49.1493 38.7459 48.904C38.6072 48.6587 38.4259 48.4773 38.2019 48.36C37.9779 48.2373 37.7352 48.176 37.4739 48.176C37.2072 48.176 36.9619 48.2373 36.7379 48.36C36.5192 48.4773 36.3432 48.6587 36.2099 48.904C36.0765 49.1493 36.0099 49.448 36.0099 49.8C36.0099 50.1573 36.0739 50.4587 36.2019 50.704C36.3352 50.9493 36.5112 51.1333 36.7299 51.256C36.9485 51.3733 37.1885 51.432 37.4499 51.432ZM40.7831 49.792C40.7831 49.344 40.8737 48.952 41.0551 48.616C41.2364 48.2747 41.4844 48.0107 41.7991 47.824C42.1191 47.6373 42.4737 47.544 42.8631 47.544C43.2471 47.544 43.5804 47.6267 43.8631 47.792C44.1457 47.9573 44.3564 48.1653 44.4951 48.416V47.616H45.2311V52H44.4951V51.184C44.3511 51.44 44.1351 51.6533 43.8471 51.824C43.5644 51.9893 43.2337 52.072 42.8551 52.072C42.4657 52.072 42.1137 51.976 41.7991 51.784C41.4844 51.592 41.2364 51.3227 41.0551 50.976C40.8737 50.6293 40.7831 50.2347 40.7831 49.792ZM44.4951 49.8C44.4951 49.4693 44.4284 49.1813 44.2951 48.936C44.1617 48.6907 43.9804 48.504 43.7511 48.376C43.5271 48.2427 43.2791 48.176 43.0071 48.176C42.7351 48.176 42.4871 48.24 42.2631 48.368C42.0391 48.496 41.8604 48.6827 41.7271 48.928C41.5937 49.1733 41.5271 49.4613 41.5271 49.792C41.5271 50.128 41.5937 50.4213 41.7271 50.672C41.8604 50.9173 42.0391 51.1067 42.2631 51.24C42.4871 51.368 42.7351 51.432 43.0071 51.432C43.2791 51.432 43.5271 51.368 43.7511 51.24C43.9804 51.1067 44.1617 50.9173 44.2951 50.672C44.4284 50.4213 44.4951 50.1307 44.4951 49.8ZM46.5893 49.792C46.5893 49.344 46.68 48.952 46.8613 48.616C47.0426 48.2747 47.2906 48.0107 47.6053 47.824C47.9253 47.6373 48.2826 47.544 48.6773 47.544C49.0186 47.544 49.336 47.624 49.6293 47.784C49.9226 47.9387 50.1466 48.144 50.3013 48.4V46.08H51.0373V52H50.3013V51.176C50.1573 51.4373 49.944 51.6533 49.6613 51.824C49.3786 51.9893 49.048 52.072 48.6693 52.072C48.28 52.072 47.9253 51.976 47.6053 51.784C47.2906 51.592 47.0426 51.3227 46.8613 50.976C46.68 50.6293 46.5893 50.2347 46.5893 49.792ZM50.3013 49.8C50.3013 49.4693 50.2346 49.1813 50.1013 48.936C49.968 48.6907 49.7866 48.504 49.5573 48.376C49.3333 48.2427 49.0853 48.176 48.8133 48.176C48.5413 48.176 48.2933 48.24 48.0693 48.368C47.8453 48.496 47.6666 48.6827 47.5333 48.928C47.4 49.1733 47.3333 49.4613 47.3333 49.792C47.3333 50.128 47.4 50.4213 47.5333 50.672C47.6666 50.9173 47.8453 51.1067 48.0693 51.24C48.2933 51.368 48.5413 51.432 48.8133 51.432C49.0853 51.432 49.3333 51.368 49.5573 51.24C49.7866 51.1067 49.968 50.9173 50.1013 50.672C50.2346 50.4213 50.3013 50.1307 50.3013 49.8Z" fill="#25292A"/>
<defs>
<filter id="filter0_d_762_20975" x="0" y="0" width="73" height="73" filterUnits="userSpaceOnUse" color-interpolation-filters="sRGB">
<feFlood flood-opacity="0" result="BackgroundImageFix"/>
<feColorMatrix in="SourceAlpha" type="matrix" values="0 0 0 0 0 0 0 0 0 0 0 0 0 0 0 0 0 0 127 0" result="hardAlpha"/>
<feOffset dy="4"/>
<feGaussianBlur stdDeviation="2"/>
<feComposite in2="hardAlpha" operator="out"/>
<feColorMatrix type="matrix" values="0 0 0 0 0 0 0 0 0 0 0 0 0 0 0 0 0 0 0.25 0"/>
<feBlend mode="normal" in2="BackgroundImageFix" result="effect1_dropShadow_762_20975"/>
<feBlend mode="normal" in="SourceGraphic" in2="effect1_dropShadow_762_20975" result="shape"/>
</filter>
<linearGradient id="paint0_linear_762_20975" x1="-1.13283" y1="22.7382" x2="52.3867" y2="53.1361" gradientUnits="userSpaceOnUse">
<stop stop-color="#9DCAFF"/>
<stop offset="1" stop-color="#E5F9FF"/>
</linearGradient>
</defs>
</svg>
