<svg width="50" height="50" viewBox="0 0 50 50" fill="none" xmlns="http://www.w3.org/2000/svg">
<g clip-path="url(#clip0_1059_13324)">
<path d="M43.75 14.5833V39.5833C43.75 40.7292 43.3424 41.7104 42.5271 42.5271C41.7104 43.3424 40.7292 43.75 39.5833 43.75H10.4167C9.27083 43.75 8.28958 43.3424 7.47292 42.5271C6.65764 41.7104 6.25 40.7292 6.25 39.5833V10.4167C6.25 9.27083 6.65764 8.28958 7.47292 7.47292C8.28958 6.65764 9.27083 6.25 10.4167 6.25H35.4167L43.75 14.5833ZM25 37.5C26.7361 37.5 28.2118 36.8924 29.4271 35.6771C30.6424 34.4618 31.25 32.9861 31.25 31.25C31.25 29.5139 30.6424 28.0382 29.4271 26.8229C28.2118 25.6076 26.7361 25 25 25C23.2639 25 21.7882 25.6076 20.5729 26.8229C19.3576 28.0382 18.75 29.5139 18.75 31.25C18.75 32.9861 19.3576 34.4618 20.5729 35.6771C21.7882 36.8924 23.2639 37.5 25 37.5ZM12.5 20.8333H31.25V12.5H12.5V20.8333Z" fill="#0D4983"/>
</g>
<defs>
<clipPath id="clip0_1059_13324">
<rect width="50" height="50" fill="white"/>
</clipPath>
</defs>
</svg>
