<svg width="122" height="33" viewBox="0 0 122 33" fill="none" xmlns="http://www.w3.org/2000/svg">
<rect y="1" width="122" height="32" rx="16" fill="#484649"/>
<path d="M13.624 12.66C14.512 12.66 15.288 12.832 15.952 13.176C16.624 13.512 17.14 14 17.5 14.64C17.868 15.272 18.052 16.012 18.052 16.86C18.052 17.708 17.868 18.444 17.5 19.068C17.14 19.692 16.624 20.172 15.952 20.508C15.288 20.836 14.512 21 13.624 21H10.9V12.66H13.624ZM13.624 19.884C14.6 19.884 15.348 19.62 15.868 19.092C16.388 18.564 16.648 17.82 16.648 16.86C16.648 15.892 16.388 15.136 15.868 14.592C15.348 14.048 14.6 13.776 13.624 13.776H12.268V19.884H13.624ZM26.0678 17.532C26.0678 17.78 26.0518 18.004 26.0198 18.204H20.9678C21.0078 18.732 21.2038 19.156 21.5558 19.476C21.9078 19.796 22.3398 19.956 22.8518 19.956C23.5878 19.956 24.1078 19.648 24.4118 19.032H25.8878C25.6878 19.64 25.3238 20.14 24.7958 20.532C24.2758 20.916 23.6278 21.108 22.8518 21.108C22.2198 21.108 21.6518 20.968 21.1478 20.688C20.6518 20.4 20.2598 20 19.9718 19.488C19.6918 18.968 19.5518 18.368 19.5518 17.688C19.5518 17.008 19.6878 16.412 19.9598 15.9C20.2398 15.38 20.6278 14.98 21.1238 14.7C21.6278 14.42 22.2038 14.28 22.8518 14.28C23.4758 14.28 24.0318 14.416 24.5198 14.688C25.0078 14.96 25.3878 15.344 25.6598 15.84C25.9318 16.328 26.0678 16.892 26.0678 17.532ZM24.6398 17.1C24.6318 16.596 24.4518 16.192 24.0998 15.888C23.7478 15.584 23.3118 15.432 22.7918 15.432C22.3198 15.432 21.9158 15.584 21.5798 15.888C21.2438 16.184 21.0438 16.588 20.9798 17.1H24.6398ZM30.5701 19.776L32.4421 14.388H33.8941L31.3741 21H29.7421L27.2341 14.388H28.6981L30.5701 19.776ZM41.5881 17.532C41.5881 17.78 41.5721 18.004 41.5401 18.204H36.4881C36.5281 18.732 36.7241 19.156 37.0761 19.476C37.4281 19.796 37.8601 19.956 38.3721 19.956C39.1081 19.956 39.6281 19.648 39.9321 19.032H41.4081C41.2081 19.64 40.8441 20.14 40.3161 20.532C39.7961 20.916 39.1481 21.108 38.3721 21.108C37.7401 21.108 37.1721 20.968 36.6681 20.688C36.1721 20.4 35.7801 20 35.4921 19.488C35.2121 18.968 35.0721 18.368 35.0721 17.688C35.0721 17.008 35.2081 16.412 35.4801 15.9C35.7601 15.38 36.1481 14.98 36.6441 14.7C37.1481 14.42 37.7241 14.28 38.3721 14.28C38.9961 14.28 39.5521 14.416 40.0401 14.688C40.5281 14.96 40.9081 15.344 41.1801 15.84C41.4521 16.328 41.5881 16.892 41.5881 17.532ZM40.1601 17.1C40.1521 16.596 39.9721 16.192 39.6201 15.888C39.2681 15.584 38.8321 15.432 38.3121 15.432C37.8401 15.432 37.4361 15.584 37.1001 15.888C36.7641 16.184 36.5641 16.588 36.5001 17.1H40.1601ZM44.9024 12.12V21H43.5344V12.12H44.9024ZM50.1664 21.108C49.5424 21.108 48.9784 20.968 48.4744 20.688C47.9704 20.4 47.5744 20 47.2864 19.488C46.9984 18.968 46.8544 18.368 46.8544 17.688C46.8544 17.016 47.0024 16.42 47.2984 15.9C47.5944 15.38 47.9984 14.98 48.5104 14.7C49.0224 14.42 49.5944 14.28 50.2264 14.28C50.8584 14.28 51.4304 14.42 51.9424 14.7C52.4544 14.98 52.8584 15.38 53.1544 15.9C53.4504 16.42 53.5984 17.016 53.5984 17.688C53.5984 18.36 53.4464 18.956 53.1424 19.476C52.8384 19.996 52.4224 20.4 51.8944 20.688C51.3744 20.968 50.7984 21.108 50.1664 21.108ZM50.1664 19.92C50.5184 19.92 50.8464 19.836 51.1504 19.668C51.4624 19.5 51.7144 19.248 51.9064 18.912C52.0984 18.576 52.1944 18.168 52.1944 17.688C52.1944 17.208 52.1024 16.804 51.9184 16.476C51.7344 16.14 51.4904 15.888 51.1864 15.72C50.8824 15.552 50.5544 15.468 50.2024 15.468C49.8504 15.468 49.5224 15.552 49.2184 15.72C48.9224 15.888 48.6864 16.14 48.5104 16.476C48.3344 16.804 48.2464 17.208 48.2464 17.688C48.2464 18.4 48.4264 18.952 48.7864 19.344C49.1544 19.728 49.6144 19.92 50.1664 19.92ZM56.9188 15.36C57.1508 15.056 57.4668 14.8 57.8668 14.592C58.2668 14.384 58.7188 14.28 59.2228 14.28C59.7988 14.28 60.3228 14.424 60.7948 14.712C61.2748 14.992 61.6508 15.388 61.9228 15.9C62.1948 16.412 62.3308 17 62.3308 17.664C62.3308 18.328 62.1948 18.924 61.9228 19.452C61.6508 19.972 61.2748 20.38 60.7948 20.676C60.3228 20.964 59.7988 21.108 59.2228 21.108C58.7188 21.108 58.2708 21.008 57.8788 20.808C57.4868 20.6 57.1668 20.344 56.9188 20.04V24.144H55.5508V14.388H56.9188V15.36ZM60.9388 17.664C60.9388 17.208 60.8428 16.816 60.6508 16.488C60.4668 16.152 60.2188 15.9 59.9068 15.732C59.6028 15.556 59.2748 15.468 58.9228 15.468C58.5788 15.468 58.2508 15.556 57.9388 15.732C57.6348 15.908 57.3868 16.164 57.1948 16.5C57.0108 16.836 56.9188 17.232 56.9188 17.688C56.9188 18.144 57.0108 18.544 57.1948 18.888C57.3868 19.224 57.6348 19.48 57.9388 19.656C58.2508 19.832 58.5788 19.92 58.9228 19.92C59.2748 19.92 59.6028 19.832 59.9068 19.656C60.2188 19.472 60.4668 19.208 60.6508 18.864C60.8428 18.52 60.9388 18.12 60.9388 17.664ZM64.9796 13.512C64.7316 13.512 64.5236 13.428 64.3556 13.26C64.1876 13.092 64.1036 12.884 64.1036 12.636C64.1036 12.388 64.1876 12.18 64.3556 12.012C64.5236 11.844 64.7316 11.76 64.9796 11.76C65.2196 11.76 65.4236 11.844 65.5916 12.012C65.7596 12.18 65.8436 12.388 65.8436 12.636C65.8436 12.884 65.7596 13.092 65.5916 13.26C65.4236 13.428 65.2196 13.512 64.9796 13.512ZM65.6516 14.388V21H64.2836V14.388H65.6516ZM71.3837 14.28C71.9037 14.28 72.3677 14.388 72.7757 14.604C73.1917 14.82 73.5157 15.14 73.7477 15.564C73.9797 15.988 74.0957 16.5 74.0957 17.1V21H72.7397V17.304C72.7397 16.712 72.5917 16.26 72.2957 15.948C71.9997 15.628 71.5957 15.468 71.0837 15.468C70.5717 15.468 70.1637 15.628 69.8597 15.948C69.5637 16.26 69.4157 16.712 69.4157 17.304V21H68.0477V14.388H69.4157V15.144C69.6397 14.872 69.9237 14.66 70.2677 14.508C70.6197 14.356 70.9917 14.28 71.3837 14.28ZM79.1046 14.28C79.6166 14.28 80.0686 14.384 80.4606 14.592C80.8606 14.792 81.1726 15.044 81.3966 15.348V14.388H82.7766V21.108C82.7766 21.716 82.6486 22.256 82.3926 22.728C82.1366 23.208 81.7646 23.584 81.2766 23.856C80.7966 24.128 80.2206 24.264 79.5486 24.264C78.6526 24.264 77.9086 24.052 77.3166 23.628C76.7246 23.212 76.3886 22.644 76.3086 21.924H77.6646C77.7686 22.268 77.9886 22.544 78.3246 22.752C78.6686 22.968 79.0766 23.076 79.5486 23.076C80.1006 23.076 80.5446 22.908 80.8806 22.572C81.2246 22.236 81.3966 21.748 81.3966 21.108V20.004C81.1646 20.316 80.8486 20.58 80.4486 20.796C80.0566 21.004 79.6086 21.108 79.1046 21.108C78.5286 21.108 78.0006 20.964 77.5206 20.676C77.0486 20.38 76.6726 19.972 76.3926 19.452C76.1206 18.924 75.9846 18.328 75.9846 17.664C75.9846 17 76.1206 16.412 76.3926 15.9C76.6726 15.388 77.0486 14.992 77.5206 14.712C78.0006 14.424 78.5286 14.28 79.1046 14.28ZM81.3966 17.688C81.3966 17.232 81.3006 16.836 81.1086 16.5C80.9246 16.164 80.6806 15.908 80.3766 15.732C80.0726 15.556 79.7446 15.468 79.3926 15.468C79.0406 15.468 78.7126 15.556 78.4086 15.732C78.1046 15.9 77.8566 16.152 77.6646 16.488C77.4806 16.816 77.3886 17.208 77.3886 17.664C77.3886 18.12 77.4806 18.52 77.6646 18.864C77.8566 19.208 78.1046 19.472 78.4086 19.656C78.7206 19.832 79.0486 19.92 79.3926 19.92C79.7446 19.92 80.0726 19.832 80.3766 19.656C80.6806 19.48 80.9246 19.224 81.1086 18.888C81.3006 18.544 81.3966 18.144 81.3966 17.688Z" fill="#FFFBFE"/>
<rect x="90" y="1" width="32" height="32" rx="16" fill="#939094"/>
<g clip-path="url(#clip0_786_10017)">
<path d="M103.5 7C104.883 7 106.183 7.26233 107.4 7.787C108.617 8.31233 109.675 9.025 110.575 9.925C111.475 10.825 112.187 11.8833 112.712 13.1C113.237 14.3167 113.5 15.6167 113.5 17C113.5 18.3833 113.237 19.6833 112.712 20.9C112.187 22.1167 111.475 23.175 110.575 24.075C109.675 24.975 108.617 25.6873 107.4 26.212C106.183 26.7373 104.883 27 103.5 27C102.617 27 101.754 26.8877 100.913 26.663C100.071 26.4377 99.2667 26.1 98.5 25.65C100.05 24.75 101.271 23.5333 102.162 22C103.054 20.4667 103.5 18.8 103.5 17C103.5 15.2 103.054 13.5333 102.162 12C101.271 10.4667 100.05 9.25 98.5 8.35C99.2667 7.9 100.071 7.56233 100.913 7.337C101.754 7.11233 102.617 7 103.5 7Z" fill="#FFFBFE"/>
</g>
<defs>
<clipPath id="clip0_786_10017">
<rect width="16" height="20" fill="white" transform="translate(98 7)"/>
</clipPath>
</defs>
</svg>
