<svg width="122" height="33" viewBox="0 0 122 33" fill="none" xmlns="http://www.w3.org/2000/svg">
<rect y="1" width="122" height="32" rx="16" fill="url(#paint0_linear_762_20986)"/>
<path d="M13.444 12.612C14.372 12.612 15.168 12.78 15.832 13.116C16.496 13.452 17.004 13.936 17.356 14.568C17.708 15.2 17.884 15.952 17.884 16.824C17.884 17.688 17.708 18.436 17.356 19.068C17.004 19.692 16.496 20.172 15.832 20.508C15.168 20.836 14.372 21 13.444 21H10.96V12.612H13.444ZM13.444 20.304C14.612 20.304 15.5 20 16.108 19.392C16.724 18.776 17.032 17.92 17.032 16.824C17.032 15.72 16.724 14.86 16.108 14.244C15.5 13.62 14.612 13.308 13.444 13.308H11.8V20.304H13.444ZM19.6487 17.712C19.6487 17.04 19.7807 16.452 20.0447 15.948C20.3167 15.436 20.6887 15.044 21.1607 14.772C21.6407 14.492 22.1807 14.352 22.7807 14.352C23.4047 14.352 23.9407 14.496 24.3887 14.784C24.8447 15.072 25.1727 15.44 25.3727 15.888V14.448H26.2127V21H25.3727V19.548C25.1647 19.996 24.8327 20.368 24.3767 20.664C23.9287 20.952 23.3927 21.096 22.7687 21.096C22.1767 21.096 21.6407 20.956 21.1607 20.676C20.6887 20.396 20.3167 20 20.0447 19.488C19.7807 18.976 19.6487 18.384 19.6487 17.712ZM25.3727 17.724C25.3727 17.196 25.2647 16.732 25.0487 16.332C24.8327 15.932 24.5367 15.624 24.1607 15.408C23.7927 15.192 23.3847 15.084 22.9367 15.084C22.4727 15.084 22.0567 15.188 21.6887 15.396C21.3207 15.604 21.0287 15.908 20.8127 16.308C20.6047 16.7 20.5007 17.168 20.5007 17.712C20.5007 18.248 20.6047 18.72 20.8127 19.128C21.0287 19.528 21.3207 19.836 21.6887 20.052C22.0567 20.26 22.4727 20.364 22.9367 20.364C23.3847 20.364 23.7927 20.256 24.1607 20.04C24.5367 19.824 24.8327 19.516 25.0487 19.116C25.2647 18.716 25.3727 18.252 25.3727 17.724ZM29.5703 15.612C29.7543 15.204 30.0343 14.888 30.4103 14.664C30.7943 14.44 31.2623 14.328 31.8143 14.328V15.204H31.5863C30.9783 15.204 30.4903 15.368 30.1223 15.696C29.7543 16.024 29.5703 16.572 29.5703 17.34V21H28.7303V14.448H29.5703V15.612ZM37.218 21L34.518 18.06V21H33.678V12.12H34.518V17.376L37.158 14.448H38.334L35.226 17.712L38.358 21H37.218ZM51.7366 14.328C52.5046 14.328 53.1286 14.572 53.6086 15.06C54.0966 15.54 54.3406 16.24 54.3406 17.16V21H53.5126V17.256C53.5126 16.544 53.3406 16 52.9966 15.624C52.6526 15.248 52.1846 15.06 51.5926 15.06C50.9766 15.06 50.4846 15.264 50.1166 15.672C49.7486 16.08 49.5646 16.672 49.5646 17.448V21H48.7366V17.256C48.7366 16.544 48.5646 16 48.2206 15.624C47.8766 15.248 47.4046 15.06 46.8046 15.06C46.1886 15.06 45.6966 15.264 45.3286 15.672C44.9606 16.08 44.7766 16.672 44.7766 17.448V21H43.9366V14.448H44.7766V15.576C44.9846 15.168 45.2806 14.86 45.6646 14.652C46.0486 14.436 46.4766 14.328 46.9486 14.328C47.5166 14.328 48.0126 14.464 48.4366 14.736C48.8686 15.008 49.1806 15.408 49.3726 15.936C49.5486 15.416 49.8486 15.02 50.2726 14.748C50.7046 14.468 51.1926 14.328 51.7366 14.328ZM59.6741 21.096C59.0581 21.096 58.5021 20.96 58.0061 20.688C57.5181 20.408 57.1301 20.016 56.8421 19.512C56.5621 19 56.4221 18.404 56.4221 17.724C56.4221 17.044 56.5661 16.452 56.8541 15.948C57.1421 15.436 57.5341 15.044 58.0301 14.772C58.5261 14.492 59.0821 14.352 59.6981 14.352C60.3141 14.352 60.8701 14.492 61.3661 14.772C61.8701 15.044 62.2621 15.436 62.5421 15.948C62.8301 16.452 62.9741 17.044 62.9741 17.724C62.9741 18.396 62.8301 18.988 62.5421 19.5C62.2541 20.012 61.8581 20.408 61.3541 20.688C60.8501 20.96 60.2901 21.096 59.6741 21.096ZM59.6741 20.364C60.1061 20.364 60.5061 20.268 60.8741 20.076C61.2421 19.876 61.5381 19.58 61.7621 19.188C61.9941 18.788 62.1101 18.3 62.1101 17.724C62.1101 17.148 61.9981 16.664 61.7741 16.272C61.5501 15.872 61.2541 15.576 60.8861 15.384C60.5181 15.184 60.1181 15.084 59.6861 15.084C59.2541 15.084 58.8541 15.184 58.4861 15.384C58.1181 15.576 57.8221 15.872 57.5981 16.272C57.3821 16.664 57.2741 17.148 57.2741 17.724C57.2741 18.3 57.3821 18.788 57.5981 19.188C57.8221 19.58 58.1141 19.876 58.4741 20.076C58.8421 20.268 59.2421 20.364 59.6741 20.364ZM64.7213 17.712C64.7213 17.04 64.8573 16.452 65.1293 15.948C65.4013 15.436 65.7733 15.044 66.2453 14.772C66.7253 14.492 67.2653 14.352 67.8653 14.352C68.4413 14.352 68.9613 14.492 69.4253 14.772C69.8893 15.052 70.2293 15.416 70.4453 15.864V12.12H71.2853V21H70.4453V19.536C70.2453 19.992 69.9173 20.368 69.4613 20.664C69.0053 20.952 68.4693 21.096 67.8533 21.096C67.2533 21.096 66.7133 20.956 66.2333 20.676C65.7613 20.396 65.3893 20 65.1173 19.488C64.8533 18.976 64.7213 18.384 64.7213 17.712ZM70.4453 17.724C70.4453 17.196 70.3373 16.732 70.1213 16.332C69.9053 15.932 69.6093 15.624 69.2333 15.408C68.8653 15.192 68.4573 15.084 68.0093 15.084C67.5453 15.084 67.1293 15.188 66.7613 15.396C66.3933 15.604 66.1013 15.908 65.8853 16.308C65.6773 16.7 65.5733 17.168 65.5733 17.712C65.5733 18.248 65.6773 18.72 65.8853 19.128C66.1013 19.528 66.3933 19.836 66.7613 20.052C67.1293 20.26 67.5453 20.364 68.0093 20.364C68.4573 20.364 68.8653 20.256 69.2333 20.04C69.6093 19.824 69.9053 19.516 70.1213 19.116C70.3373 18.716 70.4453 18.252 70.4453 17.724ZM79.731 17.388C79.731 17.676 79.723 17.896 79.707 18.048H74.271C74.295 18.544 74.415 18.968 74.631 19.32C74.847 19.672 75.131 19.94 75.483 20.124C75.835 20.3 76.219 20.388 76.635 20.388C77.179 20.388 77.635 20.256 78.003 19.992C78.379 19.728 78.627 19.372 78.747 18.924H79.635C79.475 19.564 79.131 20.088 78.603 20.496C78.083 20.896 77.427 21.096 76.635 21.096C76.019 21.096 75.467 20.96 74.979 20.688C74.491 20.408 74.107 20.016 73.827 19.512C73.555 19 73.419 18.404 73.419 17.724C73.419 17.044 73.555 16.448 73.827 15.936C74.099 15.424 74.479 15.032 74.967 14.76C75.455 14.488 76.011 14.352 76.635 14.352C77.259 14.352 77.803 14.488 78.267 14.76C78.739 15.032 79.099 15.4 79.347 15.864C79.603 16.32 79.731 16.828 79.731 17.388ZM78.879 17.364C78.887 16.876 78.787 16.46 78.579 16.116C78.379 15.772 78.103 15.512 77.751 15.336C77.399 15.16 77.015 15.072 76.599 15.072C75.975 15.072 75.443 15.272 75.003 15.672C74.563 16.072 74.319 16.636 74.271 17.364H78.879Z" fill="#25292A"/>
<rect x="90" y="1" width="32" height="32" rx="16" fill="#25292A"/>
<g clip-path="url(#clip0_762_20986)">
<path d="M103.5 7C104.883 7 106.183 7.26233 107.4 7.787C108.617 8.31233 109.675 9.025 110.575 9.925C111.475 10.825 112.187 11.8833 112.712 13.1C113.237 14.3167 113.5 15.6167 113.5 17C113.5 18.3833 113.237 19.6833 112.712 20.9C112.187 22.1167 111.475 23.175 110.575 24.075C109.675 24.975 108.617 25.6873 107.4 26.212C106.183 26.7373 104.883 27 103.5 27C102.617 27 101.754 26.8877 100.913 26.663C100.071 26.4377 99.2667 26.1 98.5 25.65C100.05 24.75 101.271 23.5333 102.162 22C103.054 20.4667 103.5 18.8 103.5 17C103.5 15.2 103.054 13.5333 102.162 12C101.271 10.4667 100.05 9.25 98.5 8.35C99.2667 7.9 100.071 7.56233 100.913 7.337C101.754 7.11233 102.617 7 103.5 7Z" fill="#FAFAFA"/>
</g>
<defs>
<linearGradient id="paint0_linear_762_20986" x1="-17.5763" y1="27.3051" x2="18.9072" y2="-52.2418" gradientUnits="userSpaceOnUse">
<stop offset="0.1783" stop-color="#B0DCEA"/>
<stop offset="0.39375" stop-color="#93BFFF"/>
<stop offset="0.961458" stop-color="#CB80F3"/>
</linearGradient>
<clipPath id="clip0_762_20986">
<rect width="16" height="20" fill="white" transform="translate(98 7)"/>
</clipPath>
</defs>
</svg>
