<svg width="24" height="24" viewBox="0 0 24 24" fill="none" xmlns="http://www.w3.org/2000/svg">
<path d="M24 11.9875C24 11.7099 23.8646 11.4659 23.6586 11.3129L23.6629 11.3053L20.7611 9.61712L22.4314 6.70172L22.4258 6.69827C22.4786 6.57812 22.5025 6.44712 22.4956 6.31591C22.4888 6.18471 22.4513 6.05697 22.3863 5.94308C22.3208 5.82929 22.2296 5.73267 22.1201 5.66106C22.0106 5.58946 21.8859 5.54489 21.7561 5.53098V5.52283H18.4048V2.1555H18.398C18.384 2.02486 18.3397 1.89937 18.2687 1.7892C18.1976 1.67903 18.1018 1.58727 17.989 1.52136C17.8758 1.45565 17.7488 1.41785 17.6184 1.41104C17.4879 1.40422 17.3577 1.4286 17.2384 1.48216L17.2343 1.47495L14.2836 3.1917L12.6497 0.339649L12.6438 0.343099C12.5668 0.237011 12.4662 0.150668 12.35 0.0910607C12.2338 0.0314536 12.1053 0.000258212 11.9749 0C11.6995 0 11.4571 0.136424 11.3055 0.34404L11.298 0.339649L9.63704 3.23874L6.77689 1.57468L6.77347 1.58064C6.65423 1.52747 6.52424 1.50337 6.39403 1.51029C6.26382 1.51721 6.13707 1.55496 6.02404 1.62047C5.91105 1.68641 5.81509 1.77829 5.74398 1.88864C5.67286 1.999 5.6286 2.12471 5.61478 2.25555H5.60638V5.60312H2.30368V5.6097C2.17403 5.62375 2.0495 5.66839 1.94017 5.73998C1.83084 5.81158 1.73978 5.90813 1.67438 6.0218C1.60934 6.1358 1.5719 6.26366 1.56509 6.39498C1.55827 6.52631 1.58228 6.6574 1.63517 6.77762L1.62801 6.78201L3.26069 9.63186L0.337055 11.3329L0.340478 11.3389C0.235201 11.4164 0.149517 11.5178 0.0903655 11.6349C0.0312137 11.752 0.00025624 11.8815 0 12.0129C0 12.2904 0.135382 12.5347 0.341412 12.6875L0.337055 12.695L3.2389 14.3832L1.56857 17.2986L1.57417 17.3017C1.52141 17.4219 1.49749 17.5529 1.50436 17.6841C1.51123 17.8153 1.54868 17.943 1.61369 18.0569C1.67919 18.1707 1.77039 18.2673 1.87989 18.3389C1.9894 18.4105 2.11412 18.4551 2.24392 18.469V18.4775H5.59487V21.8445H5.60171C5.63034 22.1004 5.77257 22.34 6.01066 22.4786C6.12388 22.5443 6.25089 22.582 6.38134 22.5888C6.51178 22.5957 6.64198 22.5713 6.76133 22.5178L6.76538 22.525L9.71609 20.8083L11.35 23.6603L11.3559 23.6569C11.4328 23.763 11.5335 23.8493 11.6497 23.9089C11.7659 23.9685 11.8944 23.9997 12.0247 24C12.3002 24 12.5426 23.8636 12.6942 23.6563L12.7013 23.6603L14.3623 20.7613L17.2228 22.4253L17.2262 22.4194C17.3455 22.4725 17.4754 22.4966 17.6057 22.4897C17.7359 22.4828 17.8626 22.445 17.9756 22.3795C18.0887 22.3136 18.1847 22.2218 18.2558 22.1114C18.3269 22.001 18.3711 21.8753 18.3849 21.7445H18.3933V18.3972H21.6963V18.3906C21.826 18.3766 21.9505 18.3319 22.0598 18.2603C22.1692 18.1887 22.2602 18.0922 22.3256 17.9785C22.3907 17.8645 22.4281 17.7367 22.4349 17.6053C22.4417 17.474 22.4177 17.3429 22.3648 17.2227L22.372 17.2186L20.7393 14.3688L23.6629 12.6677L23.6595 12.6617C23.7648 12.5842 23.8505 12.4827 23.9096 12.3656C23.9688 12.2484 23.9997 12.1189 24 11.9875ZM8.12107 16.7661C7.42704 17.17 6.79774 17.2252 6.26275 17.0803L6.33775 16.2345C6.74297 16.3527 7.26676 16.3521 7.7616 16.0639C8.18705 15.8164 8.27761 15.5103 8.15655 15.2993C7.79584 14.6702 5.98047 16.3123 5.20023 14.9508C4.8554 14.3487 5.08601 13.5486 5.93161 13.0569C6.50208 12.7248 7.07536 12.6232 7.62031 12.747L7.52414 13.5697C7.07816 13.4681 6.6191 13.5684 6.2531 13.781C5.93005 13.9692 5.82766 14.2167 5.95215 14.434C6.27862 15.0035 8.11982 13.4191 8.89352 14.7693C9.2729 15.4307 9.08524 16.2056 8.12107 16.7661ZM12.4605 14.1549L11.8834 13.6735L10.3438 14.5692L10.4686 15.3137L9.60187 15.8177L8.91251 11.3947L9.87076 10.8374L13.3272 13.6509L12.4605 14.1549ZM13.6285 13.4756L11.5554 9.85704L12.3254 9.40888L14.01 12.3491L15.5282 11.4659L15.9169 12.1443L13.6285 13.4756ZM16.4332 11.8438L14.3602 8.2256L16.901 6.74688L17.2894 7.42493L15.5132 8.45862L15.9483 9.2182L17.6868 8.20647L18.0752 8.88451L16.3367 9.89593L16.8092 10.7207L18.5856 9.68706L18.9744 10.3651L16.4332 11.8438Z" fill="#B9DDFF"/>
</svg>
