<svg width="29" height="24" viewBox="0 0 29 24" fill="none" xmlns="http://www.w3.org/2000/svg">
<path d="M15.9787 2.53753L14.9463 0.297072C14.7756 -0.091962 14.2419 -0.106023 14.0537 0.297072L13.0213 2.53753L10.7331 2.88907C10.3262 2.95469 10.1512 3.49371 10.4531 3.81712L12.1156 5.55137L11.7219 7.99338C11.6606 8.42928 12.0806 8.76676 12.4569 8.56521L14.5088 7.40279L16.5475 8.54646C16.9237 8.74801 17.3481 8.41053 17.2825 7.97463L16.8888 5.53262L18.5513 3.81712C18.8488 3.4984 18.6781 2.95937 18.2713 2.88907L15.9831 2.53753H15.9787ZM11.7 12.0009C10.9256 12.0009 10.3 12.6712 10.3 13.5008V22.5001C10.3 23.3297 10.9256 24 11.7 24H17.3C18.0744 24 18.7 23.3297 18.7 22.5001V13.5008C18.7 12.6712 18.0744 12.0009 17.3 12.0009H11.7ZM1.9 15.0007C1.12562 15.0007 0.5 15.6709 0.5 16.5006V22.5001C0.5 23.3297 1.12562 24 1.9 24H7.5C8.27437 24 8.9 23.3297 8.9 22.5001V16.5006C8.9 15.6709 8.27437 15.0007 7.5 15.0007H1.9ZM20.1 19.5003V22.5001C20.1 23.3297 20.7256 24 21.5 24H27.1C27.8744 24 28.5 23.3297 28.5 22.5001V19.5003C28.5 18.6707 27.8744 18.0004 27.1 18.0004H21.5C20.7256 18.0004 20.1 18.6707 20.1 19.5003Z" fill="white"/>
</svg>
