<svg width="25" height="24" viewBox="0 0 25 24" fill="none" xmlns="http://www.w3.org/2000/svg">
<path d="M15.9494 0L13.145 2.80192L13.9731 3.62904L13.3228 4.27731L12.4997 3.45071L0.5 15.4494L2.81521 17.7662C4.26316 17.0244 5.67149 17.1717 6.49962 17.9999C7.32775 18.828 7.47508 20.2353 6.73332 21.6833L9.05005 24L21.0452 12.0048L20.2222 11.1767L20.8725 10.5264L21.7006 11.3494L24.5 8.55005L22.1833 6.23332C20.7353 6.97508 19.328 6.82775 18.4999 5.99962C17.6717 5.17149 17.5244 3.76316 18.2662 2.31521L15.9494 0ZM15.1264 4.77521L16.8487 6.50259L16.1984 7.1529L14.4761 5.42552L15.1264 4.77521ZM12.4997 5.60842L18.8911 11.9997L10.7774 20.1185L4.379 13.7221L12.1746 5.92849L12.4997 5.60842ZM12.4997 6.89888L5.67149 13.7221L10.7774 18.828L17.6006 11.9997L12.4997 6.89888ZM17.9969 7.6508L19.7243 9.3731L19.074 10.0234L17.3466 8.30111L17.9969 7.6508Z" fill="#B9DDFF"/>
</svg>
