<svg width="38" height="19" viewBox="0 0 38 19" fill="none" xmlns="http://www.w3.org/2000/svg">
<path fill-rule="evenodd" clip-rule="evenodd" d="M28.4376 19C30.8426 19 33.0402 18.1171 34.721 16.6583L34.7209 16.6583H34.7218C35.4294 16.0434 36.0463 15.3261 36.5482 14.5299C36.7111 14.2715 36.8619 14.0043 36.9987 13.7303C37.0771 13.4961 37.1189 13.2454 37.1189 12.9853C37.1189 12.9619 37.1189 12.9393 37.1172 12.9159C37.0815 11.6297 36.0219 10.5993 34.7218 10.5993C33.854 10.5993 33.0941 11.0581 32.6732 11.745C32.5225 11.9714 31.4533 13.5317 29.8587 14.0182C29.1512 14.2333 28.4376 14.2316 28.4376 14.2316C28.0219 14.2316 27.6185 14.1786 27.2351 14.0781C27.2097 14.0728 27.1849 14.0659 27.1602 14.0591L27.1602 14.0591L27.1375 14.0529C27.1357 14.0529 27.1332 14.0521 27.1305 14.0512L27.1289 14.0507C27.1224 14.0489 27.1109 14.0456 27.0965 14.0408L27.0928 14.0398C27.0833 14.0375 27.0732 14.0351 27.0617 14.0313C27.053 14.0289 27.0436 14.0259 27.0334 14.0225L27.0173 14.0174C27.0076 14.0147 26.999 14.0122 26.9885 14.0087L26.9653 14.001L26.9484 13.9957C26.7358 13.9289 26.3733 13.8005 26.0239 13.6184C25.6251 13.4104 24.9678 12.8013 24.1685 11.9652L24.1671 11.9636L24.1618 11.9584C23.5345 11.3019 22.8199 10.5074 22.075 9.6583C21.381 8.86755 20.6604 8.0295 19.9576 7.21216L19.9576 7.21209C19.7524 6.97341 19.5487 6.7365 19.3476 6.50305C19.1951 6.32542 19.0439 6.15019 18.8949 5.97763L18.6845 5.73375C18.0344 4.98266 17.4289 4.29226 16.9104 3.72591C16.9095 3.72506 16.9086 3.72418 16.9086 3.72333C16.2656 3.02083 15.5964 2.33131 14.8339 1.73979C13.3344 0.685141 11.5166 0.049422 9.55091 0.00345897C9.4742 0.00084618 9.39752 0 9.31995 0C5.79268 0 2.7107 1.89939 1.05251 4.72767L1.05262 4.72763C0.652661 5.40846 0.335444 6.14305 0.115057 6.91758L0.13332 6.92103C0.0470648 7.16649 0 7.43101 0 7.70594C0 8.77446 1.0012 10.0962 2.39711 10.0919C3.42534 10.0893 4.37511 9.36855 4.70101 8.31133C4.70101 8.31133 4.76198 8.0789 4.84476 7.85858C5.52183 6.05374 7.27064 4.76839 9.32006 4.76839C9.64335 4.76839 9.95879 4.80048 10.2638 4.8612L10.4232 4.8768C10.7291 4.94878 11.1674 5.08233 11.6457 5.34516C11.7621 5.40822 12.1309 5.61764 12.549 5.98885L12.5536 5.99307C12.5553 5.9948 12.5562 5.99569 12.5579 5.99653C12.6329 6.06417 12.7105 6.13615 12.7871 6.21424C12.829 6.25586 12.8725 6.30182 12.9178 6.3504L12.9257 6.3582C13.3683 6.83294 14.0072 7.62964 14.7842 8.59836L14.7842 8.59843L14.7845 8.59872C15.0123 8.88286 15.2521 9.18179 15.5022 9.49174C15.5807 9.58889 15.66 9.68689 15.741 9.78666C15.7837 9.78147 15.8273 9.77886 15.8717 9.77886C16.4904 9.77886 16.9923 10.2784 16.9923 10.8942C16.9923 11.0155 16.9731 11.1317 16.9366 11.2409L16.9365 11.2408C16.973 11.1316 16.9921 11.0155 16.9921 10.8942C16.9921 10.2785 16.4903 9.77889 15.8716 9.77889C15.8273 9.77889 15.7839 9.78145 15.7413 9.78664L15.7413 9.78663C15.1836 9.85081 14.7514 10.3226 14.7514 10.8942C14.7514 11.51 15.2533 12.0095 15.872 12.0095C16.3686 12.0095 16.7902 11.687 16.9367 11.2414C17.0621 11.3913 17.1902 11.543 17.319 11.6947C17.0699 11.8213 16.8991 12.0798 16.8991 12.3772C16.8991 12.8005 17.2442 13.1439 17.6694 13.1439C17.9282 13.1439 18.1574 13.0164 18.2968 12.8213L18.2971 12.8211C18.2971 12.8213 18.297 12.8214 18.2967 12.8214C18.4789 13.0252 18.661 13.2273 18.8457 13.4293C19.8111 14.4849 20.8211 15.5013 21.8301 16.3634L21.8309 16.3643C22.826 17.2151 24.1287 18.1778 25.9516 18.6739C25.9603 18.6765 25.9699 18.6791 25.9795 18.6817C26.0208 18.6927 26.063 18.7036 26.1051 18.7145L26.1093 18.7155L26.1266 18.7199C26.1325 18.7214 26.1385 18.7229 26.1442 18.7242C26.1822 18.7337 26.2203 18.7426 26.258 18.7515L26.2897 18.7589C26.362 18.7754 26.4361 18.7919 26.5093 18.8066C26.586 18.8222 26.6627 18.837 26.7402 18.8509C27.2047 18.9333 27.6795 18.9827 28.164 18.9966L28.2152 18.9976C28.2487 18.9984 28.2821 18.9992 28.3156 18.9992C28.3358 18.9997 28.3559 18.9999 28.3761 19L28.4071 19H28.4376ZM18.297 12.8208L18.2971 12.8211L18.297 12.8208L18.297 12.8208ZM18.2968 12.8204L18.2971 12.8206L18.297 12.8208L18.2968 12.8204ZM18.2968 12.8204C17.9639 12.4457 17.6372 12.0685 17.3191 11.6947C17.4237 11.6409 17.543 11.6106 17.6693 11.6106C17.735 11.6106 17.7988 11.6188 17.8596 11.6342C17.7989 11.6189 17.7352 11.6107 17.6697 11.6107C17.5433 11.6107 17.424 11.6411 17.3194 11.6948C17.6374 12.0685 17.9641 12.4457 18.2969 12.8203L18.2968 12.8204ZM33.793 3.476C34.2418 3.476 34.6052 3.11344 34.6052 2.66765C34.6052 2.22101 34.2418 1.85846 33.793 1.85846C33.3443 1.85846 32.981 2.22101 32.981 2.66765C32.981 3.11344 33.3443 3.476 33.793 3.476ZM35.4147 6.11366C36.0413 6.11366 36.5484 5.608 36.5484 4.98442C36.5484 4.36081 36.0413 3.85518 35.4147 3.85518C34.7882 3.85518 34.2803 4.36081 34.2803 4.98442C34.2803 5.608 34.7882 6.11366 35.4147 6.11366ZM37.2004 7.46488C37.2004 7.88811 36.8562 8.23156 36.431 8.23156C36.0049 8.23156 35.6607 7.88811 35.6607 7.46488C35.6607 7.0416 36.0049 6.69815 36.431 6.69815C36.8562 6.69815 37.2004 7.0416 37.2004 7.46488ZM38 9.7926C38 10.2774 37.6053 10.6712 37.1173 10.6712C36.6302 10.6712 36.2355 10.2774 36.2355 9.7926C36.2355 9.30776 36.6302 8.91488 37.1173 8.91488C37.6053 8.91488 38 9.30776 38 9.7926ZM35.4986 9.36773C35.4986 9.98353 34.9967 10.4822 34.378 10.4822C33.7594 10.4822 33.2584 9.98353 33.2584 9.36773C33.2584 8.75196 33.7594 8.2524 34.378 8.2524C34.9967 8.2524 35.4986 8.75196 35.4986 9.36773ZM34.3777 6.72597C34.3777 7.13444 34.0457 7.46491 33.6361 7.46491C33.2257 7.46491 32.8937 7.13444 32.8937 6.72597C32.8937 6.31833 33.2257 5.98703 33.6361 5.98703C34.0457 5.98703 34.3777 6.31833 34.3777 6.72597ZM33.4287 4.37115C33.4287 5.13353 32.8083 5.75103 32.0424 5.75103C31.2765 5.75103 30.6561 5.13353 30.6561 4.37115C30.6561 3.6088 31.2765 2.99127 32.0424 2.99127C32.8083 2.99127 33.4287 3.6088 33.4287 4.37115ZM30.2354 2.66782C30.9002 2.66782 31.4387 2.13099 31.4387 1.46922C31.4387 0.808329 30.9002 0.271458 30.2354 0.271458C29.5706 0.271458 29.0321 0.808329 29.0321 1.46922C29.0321 2.13099 29.5706 2.66782 30.2354 2.66782ZM30.1354 3.85519C30.1354 4.23681 29.8252 4.54556 29.4427 4.54556C29.0593 4.54556 28.7491 4.23681 28.7491 3.85519C28.7491 3.47446 29.0593 3.16567 29.4427 3.16567C29.8252 3.16567 30.1354 3.47446 30.1354 3.85519ZM28.5816 3.60278C28.5816 3.08674 28.1616 2.66781 27.6423 2.66781C27.1229 2.66781 26.7021 3.08674 26.7021 3.60278C26.7021 4.11971 27.1229 4.5386 27.6423 4.5386C28.1616 4.5386 28.5816 4.11971 28.5816 3.60278ZM28.4709 0.870637C28.4709 1.20106 28.2016 1.46907 27.8688 1.46907C27.5368 1.46907 27.2675 1.20106 27.2675 0.870637C27.2675 0.539328 27.5368 0.271315 27.8688 0.271315C28.2016 0.271315 28.4709 0.539328 28.4709 0.870637ZM25.3451 3.476C26.0945 3.476 26.7018 2.87149 26.7018 2.12559C26.7018 1.37969 26.0945 0.774338 25.3451 0.774338C24.5958 0.774338 23.9884 1.37969 23.9884 2.12559C23.9884 2.87149 24.5958 3.476 25.3451 3.476ZM24.5348 5.45787C24.8363 5.45787 25.0811 5.21503 25.0811 4.91492C25.0811 4.61397 24.8363 4.37113 24.5348 4.37113C24.2333 4.37113 23.9884 4.61397 23.9884 4.91492C23.9884 5.21503 24.2333 5.45787 24.5348 5.45787ZM23.9875 6.95688C23.9875 7.88317 23.2329 8.63425 22.3031 8.63425C21.3725 8.63425 20.6179 7.88317 20.6179 6.95688C20.6179 6.03148 21.3725 5.28039 22.3031 5.28039C23.2329 5.28039 23.9875 6.03148 23.9875 6.95688ZM22.442 4.72496C22.964 4.72496 23.3865 4.30434 23.3865 3.7848C23.3865 3.26614 22.964 2.84463 22.442 2.84463C21.92 2.84463 21.4975 3.26614 21.4975 3.7848C21.4975 4.30434 21.92 4.72496 22.442 4.72496ZM16.9444 13.9228C16.9444 14.5464 16.4364 15.052 15.8099 15.052C15.1834 15.052 14.6754 14.5464 14.6754 13.9228C14.6754 13.3001 15.1834 12.7945 15.8099 12.7945C16.4364 12.7945 16.9444 13.3001 16.9444 13.9228ZM14.1887 17.0486C14.6374 17.0486 15.0008 16.687 15.0008 16.2403C15.0008 15.7937 14.6374 15.432 14.1887 15.432C13.7399 15.432 13.3765 15.7937 13.3765 16.2403C13.3765 16.687 13.7399 17.0486 14.1887 17.0486ZM14.7741 12.1812C14.7741 12.5898 14.4413 12.9202 14.0317 12.9202C13.6213 12.9202 13.2893 12.5898 13.2893 12.1812C13.2893 11.7736 13.6213 11.4432 14.0317 11.4432C14.4413 11.4432 14.7741 11.7736 14.7741 12.1812ZM12.438 15.9168C13.2039 15.9168 13.8243 15.2984 13.8243 14.5369C13.8243 13.7745 13.2039 13.157 12.438 13.157C11.6721 13.157 11.0516 13.7745 11.0516 14.5369C11.0516 15.2984 11.6721 15.9168 12.438 15.9168ZM11.8339 17.4379C11.8339 18.0996 11.2953 18.6356 10.6305 18.6356C9.96563 18.6356 9.42717 18.0996 9.42717 17.4379C9.42717 16.7761 9.96563 16.2401 10.6305 16.2401C11.2953 16.2401 11.8339 16.7761 11.8339 17.4379ZM10.5305 15.052C10.5305 15.4336 10.2203 15.7424 9.83781 15.7424C9.45441 15.7424 9.14421 15.4336 9.14421 15.052C9.14421 14.6713 9.45441 14.3625 9.83781 14.3625C10.2203 14.3625 10.5305 14.6713 10.5305 15.052ZM8.0374 16.2402C8.55675 16.2402 8.97764 15.8213 8.97764 15.3044C8.97764 14.7884 8.55675 14.3695 8.0374 14.3695C7.51806 14.3695 7.0981 14.7884 7.0981 15.3044C7.0981 15.8213 7.51806 16.2402 8.0374 16.2402ZM8.86595 18.0372C8.86595 18.3677 8.59672 18.6356 8.26386 18.6356C7.93185 18.6356 7.66262 18.3677 7.66262 18.0372C7.66262 17.7059 7.93185 17.4379 8.26386 17.4379C8.59672 17.4379 8.86595 17.7059 8.86595 18.0372ZM5.73925 18.1326C6.48864 18.1326 7.09686 17.5281 7.09686 16.7822C7.09686 16.0363 6.48864 15.4318 5.73925 15.4318C4.98987 15.4318 4.38257 16.0363 4.38257 16.7822C4.38257 17.5281 4.98987 18.1326 5.73925 18.1326ZM5.47524 13.9933C5.47524 14.2933 5.23037 14.5371 4.9289 14.5371C4.62743 14.5371 4.38257 14.2933 4.38257 13.9933C4.38257 13.6932 4.62743 13.4494 4.9289 13.4494C5.23037 13.4494 5.47524 13.6932 5.47524 13.9933ZM2.69973 13.628C3.63035 13.628 4.3841 12.8769 4.3841 11.9506C4.3841 11.0243 3.63035 10.2741 2.69973 10.2741C1.76915 10.2741 1.01541 11.0243 1.01541 11.9506C1.01541 12.8769 1.76915 13.628 2.69973 13.628ZM3.78169 15.1223C3.78169 15.6418 3.35907 16.0625 2.83714 16.0625C2.31605 16.0625 1.89258 15.6418 1.89258 15.1223C1.89258 14.6037 2.31605 14.1822 2.83714 14.1822C3.35907 14.1822 3.78169 14.6037 3.78169 15.1223Z" fill="white"/>
</svg>
