<svg width="24" height="24" viewBox="0 0 24 24" fill="none" xmlns="http://www.w3.org/2000/svg">
<path d="M14.2514 24H9.74935C9.46726 24 9.19364 23.9065 8.97386 23.735C8.75407 23.5634 8.60133 23.3241 8.54096 23.0568L8.03757 20.796C7.36605 20.5105 6.72929 20.1535 6.13904 19.7316L3.86698 20.4336C3.59805 20.5168 3.30787 20.5083 3.04463 20.4094C2.7814 20.3105 2.56095 20.1272 2.41989 19.89L0.163906 16.1088C0.024324 15.8714 -0.0280717 15.595 0.0152915 15.3249C0.0586546 15.0548 0.195209 14.807 0.402614 14.622L2.1651 13.062C2.08495 12.3553 2.08495 11.6423 2.1651 10.9356L0.402614 9.3792C0.194915 9.19413 0.0581751 8.94609 0.0148049 8.67574C-0.0285653 8.40539 0.0240074 8.12876 0.163906 7.8912L2.41494 4.1076C2.556 3.87038 2.77645 3.68711 3.03969 3.58823C3.30292 3.48934 3.5931 3.48079 3.86203 3.564L6.13409 4.266C6.43588 4.05 6.75003 3.8484 7.07408 3.666C7.387 3.4956 7.70857 3.3408 8.03757 3.2028L8.5422 0.9444C8.60227 0.677037 8.75473 0.437625 8.97428 0.265859C9.19384 0.0940918 9.46731 0.000287959 9.74935 0H14.2514C14.5335 0.000287959 14.8069 0.0940918 15.0265 0.265859C15.246 0.437625 15.3985 0.677037 15.4586 0.9444L15.9681 3.204C16.6388 3.49112 17.2754 3.84801 17.8667 4.2684L20.14 3.5664C20.4087 3.4835 20.6986 3.4922 20.9616 3.59107C21.2246 3.68994 21.4448 3.87304 21.5858 4.11L23.8369 7.8936C24.1238 8.382 24.0249 9 23.5981 9.3804L21.8357 10.9404C21.9158 11.6471 21.9158 12.3601 21.8357 13.0668L23.5981 14.6268C24.0249 15.0084 24.1238 15.6252 23.8369 16.1136L21.5858 19.8972C21.4448 20.1344 21.2243 20.3177 20.9611 20.4166C20.6978 20.5155 20.4077 20.524 20.1387 20.4408L17.8667 19.7388C17.2769 20.1604 16.6405 20.517 15.9694 20.802L15.4586 23.0568C15.3982 23.3239 15.2457 23.5631 15.0261 23.7346C14.8066 23.9061 14.5333 23.9998 14.2514 24V24ZM11.9954 7.2C10.6833 7.2 9.42495 7.70571 8.49715 8.60589C7.56934 9.50606 7.04811 10.727 7.04811 12C7.04811 13.273 7.56934 14.4939 8.49715 15.3941C9.42495 16.2943 10.6833 16.8 11.9954 16.8C13.3075 16.8 14.5659 16.2943 15.4937 15.3941C16.4215 14.4939 16.9428 13.273 16.9428 12C16.9428 10.727 16.4215 9.50606 15.4937 8.60589C14.5659 7.70571 13.3075 7.2 11.9954 7.2V7.2Z" fill="#0D4983"/>
</svg>
