<svg width="120" height="118" viewBox="0 0 120 118" fill="none" xmlns="http://www.w3.org/2000/svg">
<path d="M106.143 96.6328C112.302 89.3518 116.586 80.7203 118.632 71.4685C120.678 62.2168 120.426 52.617 117.897 43.4812C115.368 34.3454 110.637 25.9424 104.104 18.9831C97.5712 12.0237 89.4282 6.71269 80.3643 3.49935C71.3003 0.285999 61.5819 -0.735162 52.0313 0.522247C42.4807 1.77966 33.3788 5.27864 25.4956 10.7232C17.6124 16.1678 11.1798 23.3978 6.74193 31.8015C2.30409 40.2053 -0.00841712 49.5356 2.30206e-05 59.0032C0.00326179 72.7664 4.9396 86.0889 13.9428 96.6328L13.8571 96.7045C14.1573 97.0584 14.5004 97.3618 14.8092 97.7116C15.1952 98.1456 15.6112 98.5543 16.01 98.9757C17.2109 100.257 18.4461 101.487 19.7413 102.642C20.1358 102.996 20.5433 103.324 20.9421 103.661C22.3145 104.825 23.7255 105.929 25.188 106.957C25.3767 107.083 25.5483 107.247 25.737 107.378V107.328C35.7817 114.273 47.7646 118 60.0472 118C72.3298 118 84.3127 114.273 94.3574 107.328V107.378C94.5461 107.247 94.7134 107.083 94.9064 106.957C96.3646 105.924 97.7799 104.825 99.1523 103.661C99.5511 103.324 99.9586 102.992 100.353 102.642C101.648 101.483 102.883 100.257 104.084 98.9757C104.483 98.5543 104.895 98.1456 105.285 97.7116C105.59 97.3618 105.937 97.0584 106.237 96.7002L106.143 96.6328ZM60.0429 25.2925C63.86 25.2925 67.5914 26.4047 70.7651 28.4883C73.9389 30.5719 76.4126 33.5334 77.8733 36.9983C79.334 40.4632 79.7162 44.2758 78.9716 47.9542C78.2269 51.6325 76.3888 55.0112 73.6897 57.6632C70.9906 60.3151 67.5518 62.1211 63.8081 62.8527C60.0643 63.5844 56.1838 63.2089 52.6573 61.7737C49.1308 60.3384 46.1166 57.908 43.996 54.7897C41.8753 51.6714 40.7434 48.0052 40.7434 44.2548C40.7434 39.2257 42.7767 34.4026 46.3961 30.8465C50.0155 27.2903 54.9244 25.2925 60.0429 25.2925ZM25.7627 96.6328C25.8371 91.0999 28.1256 85.8182 32.1331 81.9305C36.1406 78.0427 41.5448 75.8614 47.1766 75.8586H72.9092C78.541 75.8614 83.9453 78.0427 87.9527 81.9305C91.9602 85.8182 94.2487 91.0999 94.3231 96.6328C84.9171 104.961 72.7045 109.57 60.0429 109.57C47.3813 109.57 35.1687 104.961 25.7627 96.6328Z" fill="#F5F5F5"/>
</svg>
