<svg width="32" height="33" viewBox="0 0 32 33" fill="none" xmlns="http://www.w3.org/2000/svg">
<path d="M31.2583 0.5L17.5273 11.3402L20.0807 4.95174L31.2583 0.5Z" fill="#E17726"/>
<path d="M0.773926 0.512695L11.9215 4.95248L14.3461 11.4248L0.773926 0.512695Z" fill="#E27625"/>
<path d="M25.7323 23.5541L31.8012 23.6773L29.6802 31.3651L22.2749 29.1896L25.7323 23.5541Z" fill="#E27625"/>
<path d="M6.26727 23.5541L9.71193 29.1896L2.31901 31.3652L0.210938 23.6773L6.26727 23.5541Z" fill="#E27625"/>
<path d="M14.0161 9.77612L14.2642 18.323L6.84277 17.9627L8.95372 14.5648L8.98044 14.532L14.0161 9.77612Z" fill="#E27625"/>
<path d="M17.907 9.68079L23.0195 14.5323L23.046 14.5648L25.157 17.9628L17.7373 18.323L17.907 9.68079Z" fill="#E27625"/>
<path d="M9.92937 23.579L13.9817 26.9478L9.27441 29.3726L9.92937 23.579Z" fill="#E27625"/>
<path d="M22.0712 23.5784L22.7126 29.3726L18.0186 26.9475L22.0712 23.5784Z" fill="#E27625"/>
<path d="M18.1221 26.6301L22.8854 29.0911L18.4546 31.3379L18.5006 29.8529L18.1221 26.6301Z" fill="#D5BFB2"/>
<path d="M13.8767 26.6312L13.513 29.8286L13.5429 31.3362L9.10156 29.0911L13.8767 26.6312Z" fill="#D5BFB2"/>
<path d="M12.501 19.4385L13.7458 22.2296L9.50781 20.9051L12.501 19.4385Z" fill="#233447"/>
<path d="M19.4988 19.4387L22.5061 20.9049L18.2544 22.2292L19.4988 19.4387Z" fill="#233447"/>
<path d="M10.2531 23.5504L9.56809 29.5574L5.89648 23.6817L10.2531 23.5504Z" fill="#CC6228"/>
<path d="M21.7471 23.5505L26.1039 23.6818L22.4184 29.5577L21.7471 23.5505Z" fill="#CC6228"/>
<path d="M25.2639 17.623L22.0932 21.0708L19.6486 19.8789L18.4782 22.5041L17.7109 17.9897L25.2639 17.623Z" fill="#CC6228"/>
<path d="M6.73438 17.623L14.2887 17.9898L13.5214 22.5042L12.3507 19.8793L9.91902 21.0709L6.73438 17.623Z" fill="#CC6228"/>
<path d="M6.52051 16.9155L10.1078 20.7994L10.2321 24.6336L6.52051 16.9155Z" fill="#E27525"/>
<path d="M25.4829 16.9084L21.7646 24.6404L21.9046 20.7993L25.4829 16.9084Z" fill="#E27525"/>
<path d="M14.1133 17.1521L14.2576 18.1217L14.6144 20.5371L14.385 27.9559L13.3006 21.9963L13.3003 21.9347L14.1133 17.1521Z" fill="#E27525"/>
<path d="M17.8849 17.1387L18.7 21.9347L18.6997 21.9963L17.6125 27.9708L17.5695 26.4764L17.3999 20.4932L17.8849 17.1387Z" fill="#E27525"/>
<path d="M22.2234 20.645L22.102 23.9763L18.3177 27.1222L17.5527 26.5455L18.4103 21.8328L22.2234 20.645Z" fill="#F5841F"/>
<path d="M9.78955 20.6451L13.5895 21.8329L14.447 26.5455L13.682 27.1222L9.89755 23.9761L9.78955 20.6451Z" fill="#F5841F"/>
<path d="M8.37744 28.3555L13.2189 30.8031L13.1985 29.7579L13.6035 29.3785H18.3953L18.815 29.7566L18.7841 30.8011L23.5949 28.3617L21.254 30.4256L18.4233 32.5H13.5647L10.7359 30.4172L8.37744 28.3555Z" fill="#C0AC9D"/>
<path d="M17.7756 26.3044L18.4601 26.8204L18.8613 30.2353L18.2808 29.7123H13.7213L13.1519 30.2458L13.5398 26.8206L14.2246 26.3044H17.7756Z" fill="#161616"/>
<path d="M30.3517 0.800049L31.9999 6.07584L30.9706 11.4102L31.7035 12.0135L30.7117 12.8209L31.4571 13.4351L30.4701 14.3943L31.076 14.8625L29.4678 16.8665L22.8716 14.8173L22.8144 14.7847L18.061 10.5063L30.3517 0.800049Z" fill="#763E1A"/>
<path d="M1.64825 0.800049L13.9389 10.5063L9.18555 14.7847L9.12839 14.8173L2.53209 16.8665L0.923902 14.8625L1.52941 14.3946L0.542814 13.4351L1.28682 12.8216L0.280167 12.0119L1.04079 11.4082L0 6.07604L1.64825 0.800049Z" fill="#763E1A"/>
<path d="M22.5487 14.3691L29.5378 16.5403L31.8085 24.0071L25.818 24.007L21.6904 24.0626L24.6922 17.8198L22.5487 14.3691Z" fill="#F5841F"/>
<path d="M9.45129 14.3691L7.30739 17.8198L10.3096 24.0626L6.18396 24.0071H0.204102L2.46202 16.5403L9.45129 14.3691Z" fill="#F5841F"/>
<path d="M20.4233 4.91602L18.4683 10.5494L18.0535 18.1596L17.8948 20.5449L17.8822 26.6383H14.1182L14.106 20.5563L13.9468 18.1575L13.5317 10.5494L11.5771 4.91602H20.4233Z" fill="#F5841F"/>
</svg>
