<svg width="183" height="9" viewBox="0 0 183 9" fill="none" xmlns="http://www.w3.org/2000/svg">
<path fill-rule="evenodd" clip-rule="evenodd" d="M88.8351 8.12599C88.1165 8.12599 87.4631 7.96266 86.8751 7.63599C86.2965 7.30932 85.8391 6.84732 85.5031 6.24999C85.1765 5.64332 85.0131 4.94332 85.0131 4.14999C85.0131 3.36599 85.1811 2.67532 85.5171 2.07799C85.8625 1.47132 86.3291 1.00932 86.9171 0.691988C87.5051 0.365321 88.1631 0.201988 88.8911 0.201988C89.6191 0.201988 90.2771 0.365321 90.8651 0.691988C91.4531 1.00932 91.9151 1.46665 92.2511 2.06399C92.5965 2.66132 92.7691 3.35666 92.7691 4.14999C92.7691 4.94332 92.5918 5.64332 92.2371 6.24999C91.8918 6.84732 91.4205 7.30932 90.8231 7.63599C90.2258 7.96266 89.5631 8.12599 88.8351 8.12599ZM88.8351 7.00599C89.2925 7.00599 89.7218 6.89866 90.1231 6.68399C90.5245 6.46932 90.8465 6.14732 91.0891 5.71799C91.3411 5.28866 91.4671 4.76599 91.4671 4.14999C91.4671 3.53399 91.3458 3.01132 91.1031 2.58199C90.8605 2.15265 90.5431 1.83532 90.1511 1.62999C89.7591 1.41532 89.3345 1.30799 88.8771 1.30799C88.4105 1.30799 87.9811 1.41532 87.5891 1.62999C87.2065 1.83532 86.8985 2.15265 86.6651 2.58199C86.4318 3.01132 86.3151 3.53399 86.3151 4.14999C86.3151 4.77532 86.4271 5.30266 86.6511 5.73199C86.8845 6.16132 87.1925 6.48332 87.5751 6.69799C87.9578 6.90332 88.3778 7.00599 88.8351 7.00599ZM95.7182 1.57399C95.9422 1.13532 96.2595 0.794655 96.6702 0.551988C97.0902 0.309322 97.5989 0.187988 98.1962 0.187988V1.50399H97.8602C96.4322 1.50399 95.7182 2.27866 95.7182 3.82799V7.99999H94.4442V0.327988H95.7182V1.57399ZM75 2.99999H0V1.99999H75V2.99999ZM108 2.99999H183V1.99999H108V2.99999Z" fill="white"/>
</svg>
